<svg width="54" height="44" viewBox="0 0 54 44" fill="none" xmlns="http://www.w3.org/2000/svg">
<g clip-path="url(#clip0_301_9045)">
<path d="M41.6256 18.5891C37.6015 18.5923 33.8309 20.554 31.5186 23.8474C31.727 12.1964 41.2228 2.85564 52.8756 2.83918C53.4969 2.83918 54.0006 2.33546 54.0006 1.71415C54.0006 1.09283 53.4969 0.589111 52.8756 0.589111C39.8341 0.603982 29.2655 11.1726 29.2506 24.2141V30.9641C29.2506 37.7986 34.7911 43.3391 41.6256 43.3391C48.46 43.3391 54.0005 37.7986 54.0005 30.9641C54.0005 24.1296 48.4601 18.5891 41.6256 18.5891Z" fill="#0EBED9"/>
<path d="M41.6256 43.3393C34.7911 43.3393 29.2506 37.7988 29.2506 30.9643C29.2506 24.1298 34.7911 18.5894 41.6256 18.5894C48.4601 18.5894 54.0005 24.1298 54.0005 30.9643C53.9919 37.7952 48.4565 43.3306 41.6256 43.3393ZM41.6256 20.8393C36.0337 20.8393 31.5006 25.3725 31.5006 30.9643C31.5006 36.5562 36.0337 41.0893 41.6256 41.0893C47.2174 41.0893 51.7506 36.5562 51.7506 30.9643C51.7506 25.3725 47.2174 20.8393 41.6256 20.8393Z" fill="white"/>
<path d="M30.3755 32.0894C29.7542 32.0894 29.2505 31.5857 29.2505 30.9644V24.2144C29.2641 11.1723 39.8334 0.602961 52.8755 0.589355C53.4968 0.589355 54.0005 1.09307 54.0005 1.71439C54.0005 2.33571 53.4968 2.83943 52.8755 2.83943C41.0761 2.85303 31.5142 12.415 31.5005 24.2145V30.9645C31.5006 31.5857 30.9969 32.0894 30.3755 32.0894Z" fill="white"/>
<path d="M12.3751 18.5891C8.35102 18.5923 4.58041 20.554 2.26812 23.8474C2.47653 12.1964 11.9723 2.85564 23.6251 2.83918C24.2464 2.83918 24.7501 2.33546 24.7501 1.71415C24.7501 1.09283 24.2464 0.589111 23.6251 0.589111C10.5836 0.603982 0.0149931 11.1726 0.00012207 24.2141V30.9641C0.00012207 37.7986 5.5406 43.3391 12.3751 43.3391C19.2095 43.3391 24.75 37.7986 24.75 30.9641C24.75 24.1296 19.2096 18.5891 12.3751 18.5891Z" fill="#0EBED9"/>
<path d="M12.3751 43.3393C5.5406 43.3393 0.00012207 37.7988 0.00012207 30.9643C0.00012207 24.1298 5.5406 18.5894 12.3751 18.5894C19.2096 18.5894 24.7501 24.1298 24.7501 30.9643C24.7414 37.7952 19.206 43.3306 12.3751 43.3393ZM12.3751 20.8393C6.78324 20.8393 2.25008 25.3725 2.25008 30.9643C2.25008 36.5562 6.78324 41.0893 12.3751 41.0893C17.9669 41.0893 22.5001 36.5562 22.5001 30.9643C22.5001 25.3725 17.9669 20.8393 12.3751 20.8393Z" fill="white"/>
<path d="M1.12503 32.0894C0.503718 32.0894 0 31.5857 0 30.9644V24.2144C0.0136055 11.1723 10.5829 0.602961 23.625 0.589355C24.2463 0.589355 24.75 1.09307 24.75 1.71439C24.75 2.33571 24.2463 2.83943 23.625 2.83943C11.8256 2.85303 2.26367 12.415 2.24996 24.2145V30.9645C2.25007 31.5857 1.74646 32.0894 1.12503 32.0894Z" fill="white"/>
</g>
<defs>
<clipPath id="clip0_301_9045">
<rect width="54" height="44" fill="white"/>
</clipPath>
</defs>
</svg>
