<svg width="32" height="28" viewBox="0 0 32 28" fill="none" xmlns="http://www.w3.org/2000/svg">
<g clip-path="url(#clip0_301_2734)">
<path d="M25.496 24.4155H6.50403C6.11566 24.4155 5.77766 24.1499 5.68578 23.7724L2.58078 11.0078C2.51153 10.7234 2.5951 10.4234 2.80141 10.2156C3.00766 10.0078 3.30716 9.92183 3.59203 9.9892L9.62653 11.4105L15.3028 3.02877C15.4595 2.79745 15.7207 2.65883 16.0001 2.65883C16.2795 2.65883 16.5407 2.79745 16.6973 3.02877L22.3737 11.4105L28.4082 9.9892C28.6932 9.92183 28.9925 10.0077 29.1988 10.2156C29.4051 10.4234 29.4887 10.7234 29.4194 11.0078L28.0286 16.7252C27.9186 17.1771 27.4632 17.4546 27.0112 17.3445C26.5593 17.2345 26.2822 16.7791 26.392 16.3273L27.4585 11.9432L22.1947 13.183C21.8545 13.2631 21.5003 13.125 21.3045 12.8355L16 5.0027L10.6956 12.8354C10.4997 13.1248 10.1455 13.263 9.80535 13.1828L4.5416 11.9431L7.16591 22.7312H24.8343L25.3678 20.5377C25.4778 20.0858 25.9332 19.8083 26.3852 19.9184C26.8371 20.0284 27.1143 20.4838 27.0044 20.9356L26.3144 23.7723C26.2224 24.1498 25.8844 24.4155 25.496 24.4155Z" fill="#0EBED9"/>
<path d="M15.9999 6.02193C17.3216 6.02193 18.393 4.95049 18.393 3.6288C18.393 2.30711 17.3216 1.23567 15.9999 1.23567C14.6782 1.23567 13.6068 2.30711 13.6068 3.6288C13.6068 4.95049 14.6782 6.02193 15.9999 6.02193Z" fill="#CEE8FA"/>
<path d="M16.0001 6.86429C14.216 6.86429 12.7646 5.41292 12.7646 3.62885C12.7646 1.84479 14.216 0.393417 16.0001 0.393417C17.7841 0.393417 19.2355 1.84479 19.2355 3.62885C19.2355 5.41292 17.7841 6.86429 16.0001 6.86429ZM16.0001 2.0776C15.1448 2.0776 14.4488 2.77354 14.4488 3.62885C14.4488 4.48417 15.1448 5.1801 16.0001 5.1801C16.8554 5.1801 17.5513 4.48417 17.5513 3.62885C17.5513 2.77354 16.8554 2.0776 16.0001 2.0776Z" fill="#0EBED9"/>
<path d="M28.7643 13.2018C30.086 13.2018 31.1575 12.1304 31.1575 10.8087C31.1575 9.48704 30.086 8.4156 28.7643 8.4156C27.4427 8.4156 26.3712 9.48704 26.3712 10.8087C26.3712 12.1304 27.4427 13.2018 28.7643 13.2018Z" fill="#CEE8FA"/>
<path d="M28.7646 14.0443C26.9806 14.0443 25.5292 12.5929 25.5292 10.8088C25.5292 9.02477 26.9806 7.57339 28.7646 7.57339C30.5486 7.57339 32.0001 9.02477 32.0001 10.8088C32.0001 12.5928 30.5487 14.0443 28.7646 14.0443ZM28.7646 9.25764C27.9092 9.25764 27.2134 9.95358 27.2134 10.8089C27.2134 11.6642 27.9093 12.3601 28.7646 12.3601C29.6199 12.3601 30.3159 11.6642 30.3159 10.8089C30.3159 9.95358 29.6199 9.25764 28.7646 9.25764Z" fill="#0EBED9"/>
<path d="M3.23553 13.2018C4.55722 13.2018 5.62866 12.1304 5.62866 10.8087C5.62866 9.48704 4.55722 8.4156 3.23553 8.4156C1.91385 8.4156 0.842407 9.48704 0.842407 10.8087C0.842407 12.1304 1.91385 13.2018 3.23553 13.2018Z" fill="#CEE8FA"/>
<path d="M3.23544 14.0443C1.45137 14.0443 0 12.5929 0 10.8088C0 9.02466 1.45137 7.57335 3.23544 7.57335C5.0195 7.57335 6.47087 9.02472 6.47087 10.8088C6.47087 12.5928 5.01944 14.0443 3.23544 14.0443ZM3.23544 9.25766C2.38012 9.25766 1.68419 9.9536 1.68419 10.8089C1.68419 11.6642 2.38012 12.3602 3.23544 12.3602C4.09087 12.3602 4.78669 11.6642 4.78669 10.8089C4.78669 9.9536 4.09087 9.25766 3.23544 9.25766Z" fill="#0EBED9"/>
<path d="M16.1902 20.8962C15.6477 20.8962 15.1376 20.6848 14.7539 20.3013L12.0921 17.6395C11.3002 16.8475 11.3002 15.5589 12.0921 14.7669L14.7539 12.1051C15.1377 11.7214 15.6477 11.5103 16.1902 11.5103C16.7327 11.5103 17.2429 11.7215 17.6264 12.1051L20.2883 14.7669C21.0802 15.5589 21.0802 16.8475 20.2883 17.6395L17.6265 20.3013C17.2429 20.6848 16.7328 20.8962 16.1902 20.8962ZM16.1902 13.1943C16.1365 13.1943 16.0332 13.2075 15.9447 13.2959L13.283 15.9577C13.1477 16.093 13.1477 16.3132 13.283 16.4484L15.9448 19.1102C16.0332 19.1987 16.1365 19.2118 16.1902 19.2118C16.2439 19.2118 16.3471 19.1987 16.4356 19.1102L19.0974 16.4484C19.2327 16.3132 19.2327 16.093 19.0974 15.9577L16.4356 13.2959C16.3473 13.2075 16.2439 13.1943 16.1902 13.1943Z" fill="#0EBED9"/>
<path d="M24.5363 26.7645H7.54115C6.96834 26.7645 6.50403 26.3002 6.50403 25.7274V23.5734H25.5734V25.7274C25.5734 26.3001 25.1091 26.7645 24.5363 26.7645Z" fill="#CEE8FA"/>
<path d="M24.5363 27.6067H7.54112C6.50493 27.6067 5.66187 26.7637 5.66187 25.7274V23.5735C5.66187 23.1085 6.03887 22.7313 6.50399 22.7313H25.5734C26.0385 22.7313 26.4155 23.1085 26.4155 23.5735V25.7274C26.4155 26.7637 25.5724 27.6067 24.5363 27.6067ZM7.34612 24.4156V25.7274C7.34612 25.835 7.43362 25.9225 7.54118 25.9225H24.5362C24.6438 25.9225 24.7312 25.835 24.7312 25.7274V24.4156H7.34612Z" fill="#0EBED9"/>
</g>
<defs>
<clipPath id="clip0_301_2734">
<rect width="32" height="28" fill="white"/>
</clipPath>
</defs>
</svg>
