<svg width="32" height="22" viewBox="0 0 32 22" fill="none" xmlns="http://www.w3.org/2000/svg">
<path d="M28.2011 21.0614C27.6731 21.0614 27.1766 20.8557 26.8033 20.4824L24.0583 17.7374L21.3134 20.4824C20.94 20.8557 20.4436 21.0614 19.9155 21.0614C19.3875 21.0614 18.891 20.8557 18.5176 20.4824L16.6955 18.6602C16.3221 18.2868 16.1165 17.7903 16.1165 17.2623C16.1165 16.7342 16.3221 16.2377 16.6955 15.8644L19.4404 13.1195L16.6955 10.3746C16.3221 10.0012 16.1165 9.50468 16.1165 8.97668C16.1165 8.44862 16.3221 7.95212 16.6955 7.57881L18.5177 5.75662C18.891 5.38331 19.3875 5.17762 19.9155 5.17762C20.4435 5.17762 20.94 5.38331 21.3133 5.75668L24.0583 8.50156L26.8032 5.75662C27.1765 5.38331 27.673 5.17762 28.2011 5.17762C28.7291 5.17762 29.2256 5.38331 29.599 5.75668L31.421 7.57874C31.7944 7.95206 32.0001 8.44856 32.0001 8.97662C32.0001 9.50462 31.7945 10.0011 31.4211 10.3744L28.6761 13.1194L31.4211 15.8644C31.7944 16.2377 32.0001 16.7342 32.0001 17.2622C32.0001 17.7902 31.7944 18.2867 31.421 18.66L29.599 20.4822C29.2256 20.8557 28.7291 21.0614 28.2011 21.0614ZM24.0583 15.0616L28.1411 19.1444C28.1741 19.1773 28.2281 19.1773 28.2611 19.1444L30.0831 17.3221C30.0997 17.3057 30.108 17.2855 30.108 17.2622C30.108 17.2389 30.0997 17.2187 30.0832 17.2022L26.0004 13.1194L30.0832 9.03662C30.0996 9.02018 30.1081 8.99993 30.1081 8.97662C30.1081 8.95331 30.0998 8.93312 30.0833 8.91662L28.2611 7.09443C28.2281 7.06131 28.1741 7.06143 28.1411 7.09431L24.0582 11.1773L19.9754 7.09449C19.9425 7.06149 19.8886 7.06149 19.8555 7.09437L18.0333 8.91662C18.0168 8.93306 18.0085 8.95331 18.0085 8.97662C18.0085 8.99987 18.0168 9.02012 18.0333 9.03668L22.1161 13.1194L18.0334 17.2022C18.0168 17.2187 18.0085 17.2389 18.0085 17.2622C18.0085 17.2855 18.0168 17.3057 18.0334 17.3223L19.8555 19.1444C19.8884 19.1773 19.9424 19.1773 19.9754 19.1444L24.0583 15.0616Z" fill="#0EBED9"/>
<path d="M9.22194 21.0615C8.39537 21.0615 7.67744 20.5762 7.36825 19.7954L5.25225 14.4526C5.11931 14.1168 4.80025 13.9 4.43925 13.9H0V12.0079H4.43913C5.58119 12.0079 6.59081 12.694 7.01131 13.7559L9.12744 19.0989C9.13937 19.1289 9.15744 19.1734 9.23825 19.169C9.31913 19.1636 9.33094 19.1162 9.33881 19.0849L13.3382 3.03619C13.6459 1.80113 14.7498 0.938507 16.0227 0.938507H31.4736V2.83057H16.0227C15.6203 2.83057 15.2714 3.10319 15.1741 3.49363L11.1747 19.5422C10.9601 20.4034 10.2493 20.9978 9.36375 21.0567C9.31619 21.0599 9.26888 21.0615 9.22194 21.0615Z" fill="#0EBED9"/>
</svg>
