<svg width="30" height="32" viewBox="0 0 30 32" fill="none" xmlns="http://www.w3.org/2000/svg">
<g clip-path="url(#clip0_301_2758)">
<path d="M17.1035 12.991H2.00345C1.5022 12.991 1.09595 12.5846 1.09595 12.0835C1.09595 11.5822 1.50226 11.176 2.00345 11.176H17.1035C17.6046 11.176 18.011 11.5823 18.011 12.0835C18.011 12.5846 17.6048 12.991 17.1035 12.991Z" fill="#0EBED9"/>
<path d="M17.1943 20.8655H2.00345C1.5022 20.8655 1.09595 20.4591 1.09595 19.958C1.09595 19.4568 1.50226 19.0505 2.00345 19.0505H17.1943C17.6954 19.0505 18.1018 19.4568 18.1018 19.958C18.1018 20.4591 17.6955 20.8655 17.1943 20.8655Z" fill="#0EBED9"/>
<path d="M17.1943 28.7397H2.00345C1.5022 28.7397 1.09595 28.3334 1.09595 27.8322C1.09595 27.331 1.50226 26.9247 2.00345 26.9247H17.1943C17.6954 26.9247 18.1018 27.331 18.1018 27.8322C18.1018 28.3334 17.6955 28.7397 17.1943 28.7397Z" fill="#0EBED9"/>
<path d="M27.9962 12.991H24.6226C24.1215 12.991 23.7151 12.5846 23.7151 12.0835C23.7151 11.5822 24.1215 11.176 24.6226 11.176H27.9962C28.4973 11.176 28.9037 11.5823 28.9037 12.0835C28.9038 12.5846 28.4975 12.991 27.9962 12.991Z" fill="#0EBED9"/>
<path d="M27.9963 20.8655H25.0766C24.5754 20.8655 24.1691 20.4591 24.1691 19.958C24.1691 19.4568 24.5754 19.0505 25.0766 19.0505H27.9963C28.4974 19.0505 28.9038 19.4568 28.9038 19.958C28.9038 20.4591 28.4975 20.8655 27.9963 20.8655Z" fill="#0EBED9"/>
<path d="M27.9963 28.7397H25.0766C24.5754 28.7397 24.1691 28.3334 24.1691 27.8322C24.1691 27.331 24.5754 26.9247 25.0766 26.9247H27.9963C28.4974 26.9247 28.9038 27.331 28.9038 27.8322C28.9038 28.3334 28.4975 28.7397 27.9963 28.7397Z" fill="#0EBED9"/>
<path d="M20.7361 26.2424C20.6989 26.2424 20.6614 26.2402 20.6241 26.2354L17.0822 25.7949C16.6278 25.7384 16.2866 25.3522 16.2866 24.8944V0.9075C16.2866 0.40625 16.693 0 17.1941 0C17.6952 0 18.1016 0.406313 18.1016 0.9075V24.0927L19.8284 24.3075V6.04306C19.8284 5.54181 20.2348 5.13556 20.7359 5.13556C21.2371 5.13556 21.6434 5.54188 21.6434 6.04306V25.3347C21.6434 25.5949 21.5318 25.8427 21.3367 26.0149C21.1701 26.1624 20.9561 26.2424 20.7361 26.2424Z" fill="#0EBED9"/>
<path d="M15.4231 31.0925C18.3571 31.0925 20.7356 28.714 20.7356 25.78C20.7356 22.846 18.3571 20.4675 15.4231 20.4675C12.4891 20.4675 10.1106 22.846 10.1106 25.78C10.1106 28.714 12.4891 31.0925 15.4231 31.0925Z" fill="#CEE8FA"/>
<path d="M15.4235 32.0001C11.9937 32.0001 9.20325 29.2096 9.20325 25.7798C9.20325 22.35 11.9937 19.5596 15.4235 19.5596C18.8534 19.5596 21.6438 22.35 21.6438 25.7798C21.6438 29.2096 18.8534 32.0001 15.4235 32.0001ZM15.4235 21.3746C12.9944 21.3746 11.0183 23.3508 11.0183 25.7798C11.0183 28.2089 12.9944 30.185 15.4235 30.185C17.8527 30.185 19.8288 28.2089 19.8288 25.7798C19.8288 23.3508 17.8527 21.3746 15.4235 21.3746Z" fill="#0EBED9"/>
<path d="M26.5815 16.759C26.0804 16.759 25.674 16.3527 25.674 15.8515V14.9239C25.674 14.0829 25.1763 13.3216 24.4059 12.9843L22.184 12.0113C20.7533 11.3849 19.8289 9.97097 19.8289 8.40909V7.61984C19.8289 7.11859 20.2352 6.71234 20.7364 6.71234C21.2375 6.71234 21.6439 7.11865 21.6439 7.61984V8.40909C21.6439 9.25009 22.1415 10.0114 22.9119 10.3487L25.1338 11.3217C26.5646 11.9481 27.489 13.362 27.489 14.9239V15.8515C27.489 16.3527 27.0827 16.759 26.5815 16.759Z" fill="#0EBED9"/>
</g>
<defs>
<clipPath id="clip0_301_2758">
<rect width="30" height="32" fill="white"/>
</clipPath>
</defs>
</svg>
