<svg width="30" height="24" viewBox="0 0 30 24" fill="none" xmlns="http://www.w3.org/2000/svg">
<g clip-path="url(#clip0_301_2687)">
<path d="M29.1865 15.5254H24.0639C22.2178 15.5254 20.7208 14.0284 20.7208 12.1824V11.7034C20.7208 9.85738 22.2178 8.36037 24.0639 8.36037H29.1865C27.3405 8.36037 25.8434 9.85738 25.8434 11.7034V12.1824C25.8435 14.0284 27.3405 15.5254 29.1865 15.5254Z" fill="#CEE8FA"/>
<path d="M29.1882 16.3372C29.1877 16.3372 29.1871 16.3372 29.1866 16.3372H24.0639C21.7729 16.3372 19.9091 14.4734 19.9091 12.1824V11.7034C19.9091 9.4124 21.7729 7.54854 24.0639 7.54854H29.1866C29.6349 7.54854 29.9984 7.91205 29.9984 8.36035C29.9984 8.80865 29.6349 9.17217 29.1866 9.17217C27.7908 9.17217 26.6553 10.3077 26.6553 11.7034V12.1824C26.6553 13.578 27.7908 14.7136 29.1866 14.7136C29.1868 14.7135 29.1871 14.7135 29.1874 14.7136H29.1882C29.6366 14.7136 30 15.0771 30 15.5254C30 15.9737 29.6366 16.3372 29.1882 16.3372ZM24.0639 9.17217C22.6682 9.17217 21.5327 10.3077 21.5327 11.7034V12.1824C21.5327 13.578 22.6682 14.7136 24.0639 14.7136H25.8938C25.3534 14.0123 25.0317 13.1342 25.0317 12.1824V11.7034C25.0317 10.7516 25.3533 9.87348 25.8938 9.17217H24.0639Z" fill="#0EBED9"/>
<path d="M29.1882 23.6165C29.1877 23.6165 29.1871 23.6165 29.1866 23.6165H24.0639C21.7729 23.6165 19.9091 21.7526 19.9091 19.4616V18.9827C19.9091 16.6917 21.7729 14.8278 24.0639 14.8278H29.1866C29.6349 14.8278 29.9984 15.1913 29.9984 15.6396C29.9984 16.0879 29.6349 16.4514 29.1866 16.4514C27.7908 16.4514 26.6553 17.5869 26.6553 18.9827V19.4616C26.6553 20.8573 27.7908 21.9929 29.1866 21.9929C29.1868 21.9928 29.1871 21.9929 29.1874 21.9929H29.1882C29.6366 21.9929 30 22.3564 30 22.8047C30 23.253 29.6366 23.6165 29.1882 23.6165ZM24.0639 16.4514C22.6682 16.4514 21.5327 17.5869 21.5327 18.9827V19.4616C21.5327 20.8573 22.6682 21.9929 24.0639 21.9929H25.8938C25.3534 21.2916 25.0317 20.4135 25.0317 19.4616V18.9827C25.0317 18.0308 25.3533 17.1527 25.8938 16.4514H24.0639Z" fill="#0EBED9"/>
<path d="M20.7209 19.4616V18.9827C20.7209 17.1366 22.2179 15.6396 24.064 15.6396H4.15496C2.3089 15.6396 0.81189 17.1366 0.81189 18.9827V19.4616C0.81189 21.3077 2.3089 22.8047 4.15496 22.8047H24.064C22.2179 22.8047 20.7209 21.3078 20.7209 19.4616Z" fill="#CEE8FA"/>
<path d="M24.0639 23.6165H4.15488C1.86387 23.6165 0 21.7526 0 19.4616V18.9827C0 16.6917 1.86387 14.8278 4.15488 14.8278H24.0639C24.5123 14.8278 24.8757 15.1913 24.8757 15.6396C24.8757 16.0879 24.5123 16.4514 24.0639 16.4514C22.6682 16.4514 21.5327 17.5869 21.5327 18.9827V19.4616C21.5327 20.8573 22.6682 21.9929 24.0639 21.9929C24.5123 21.9929 24.8757 22.3564 24.8757 22.8047C24.8757 23.253 24.5123 23.6165 24.0639 23.6165ZM4.15488 16.4514C2.75912 16.4514 1.62363 17.5869 1.62363 18.9827V19.4616C1.62363 20.8573 2.75912 21.9929 4.15488 21.9929H20.7712C20.2308 21.2916 19.909 20.4135 19.909 19.4616V18.9827C19.909 18.0308 20.2307 17.1527 20.7712 16.4514H4.15488Z" fill="#0EBED9"/>
<path d="M29.1866 9.17221H24.0639C21.7729 9.17221 19.9091 7.30834 19.9091 5.01733V4.53838C19.9091 2.24737 21.7729 0.383499 24.0639 0.383499C24.5123 0.383499 24.8758 0.747015 24.8758 1.19532C24.8758 1.64362 24.5123 2.00713 24.0639 2.00713C22.6682 2.00713 21.5327 3.14262 21.5327 4.53838V5.01733C21.5327 6.41303 22.6682 7.54858 24.0639 7.54858H25.8938C25.3534 6.84727 25.0317 5.96918 25.0317 5.01733V4.53838C25.0317 2.24737 26.8955 0.383499 29.1866 0.383499C29.6349 0.383499 29.9984 0.747015 29.9984 1.19532C29.9984 1.64362 29.6349 2.00713 29.1866 2.00713C27.7908 2.00713 26.6553 3.14262 26.6553 4.53838V5.01733C26.6553 6.41303 27.7908 7.54858 29.1866 7.54858C29.6349 7.54858 29.9984 7.91209 29.9984 8.36039C29.9984 8.8087 29.6349 9.17221 29.1866 9.17221Z" fill="#0EBED9"/>
<path d="M6.2001 13.5672C6.01125 13.5673 5.82311 13.5156 5.65448 13.413C5.33883 13.2208 5.15051 12.8855 5.15051 12.516V4.11579C5.15051 3.66749 5.51397 3.30397 5.96233 3.30397H11.7521C12.2004 3.30397 12.5639 3.66749 12.5639 4.11579V8.36056C12.5639 8.80886 12.2004 9.17238 11.7521 9.17238C11.3037 9.17238 10.9403 8.80886 10.9403 8.36056V4.92761H6.77403V11.5742L8.37498 10.747C8.67703 10.591 9.03727 10.5912 9.33891 10.7469L10.9406 11.5743C10.9532 11.137 11.3116 10.7863 11.752 10.7863C12.2004 10.7863 12.5638 11.1499 12.5638 11.5982V12.5159C12.5638 12.8854 12.3754 13.2207 12.0599 13.4129C11.7442 13.605 11.3599 13.6185 11.0316 13.4489L8.85709 12.3254L6.68262 13.4488C6.52981 13.528 6.36469 13.5672 6.2001 13.5672Z" fill="#0EBED9"/>
<path d="M28.3747 16.3372H3.34295C1.82877 16.3372 0 14.484 0 12.1824V11.7034C0 9.41239 1.86387 7.54853 4.15488 7.54853H5.96215C6.41051 7.54853 6.77396 7.91205 6.77396 8.36035C6.77396 8.80865 6.41051 9.17216 5.96215 9.17216H4.15488C2.75912 9.17216 1.62363 10.3076 1.62363 11.7034V12.1824C1.62363 13.6447 2.83014 14.7136 3.34295 14.7136H25.8219C25.346 14.0136 25.0317 13.1365 25.0317 12.1824V11.7034C25.0317 10.7493 25.346 9.87212 25.8219 9.17216H11.7519C11.3036 9.17216 10.9401 8.80865 10.9401 8.36035C10.9401 7.91205 11.3036 7.54853 11.7519 7.54853H28.3747C28.823 7.54853 29.1865 7.91205 29.1865 8.36035C29.1865 8.80865 28.823 9.17216 28.3747 9.17216C27.8619 9.17216 26.6553 10.2411 26.6553 11.7034V12.1824C26.6553 13.6447 27.8618 14.7136 28.3747 14.7136C28.823 14.7136 29.1865 15.0771 29.1865 15.5254C29.1865 15.9737 28.823 16.3372 28.3747 16.3372Z" fill="#0EBED9"/>
<path d="M20.7209 5.01734V4.5384C20.7209 2.69234 22.2179 1.19533 24.064 1.19533H4.15496C2.3089 1.19533 0.81189 2.69234 0.81189 4.5384V5.01734C0.81189 6.8634 2.3089 8.36041 4.15496 8.36041H5.96222V4.11582H11.752V8.36041H24.064C22.2179 8.36041 20.7209 6.8634 20.7209 5.01734Z" fill="#CEE8FA"/>
<path d="M24.0639 9.17226H11.7519C11.3036 9.17226 10.9401 8.80874 10.9401 8.36044V4.92767H6.77396V8.36044C6.77396 8.80874 6.41051 9.17226 5.96215 9.17226H4.15488C1.86387 9.17226 0 7.30839 0 5.01749V4.53855C0 2.24753 1.86387 0.383667 4.15488 0.383667H24.0639C24.5123 0.383667 24.8757 0.747182 24.8757 1.19548C24.8757 1.64378 24.5123 2.0073 24.0639 2.0073C22.6682 2.0073 21.5327 3.14279 21.5327 4.53855V5.01749C21.5327 6.4132 22.6682 7.54875 24.0639 7.54875C24.5123 7.54875 24.8757 7.91226 24.8757 8.36056C24.8757 8.80886 24.5123 9.17226 24.0639 9.17226ZM12.5637 7.54863H20.7712C20.2308 6.84732 19.909 5.96923 19.909 5.01738V4.53843C19.909 3.58658 20.2307 2.70849 20.7712 2.00718H4.15488C2.75912 2.00718 1.62363 3.14273 1.62363 4.53843V5.01738C1.62363 6.41308 2.75912 7.54863 4.15488 7.54863H5.15033V4.11585C5.15033 3.66755 5.51379 3.30404 5.96215 3.30404H11.7519C12.2003 3.30404 12.5637 3.66755 12.5637 4.11585V7.54863Z" fill="#0EBED9"/>
</g>
<defs>
<clipPath id="clip0_301_2687">
<rect width="30" height="24" fill="white"/>
</clipPath>
</defs>
</svg>
