<svg width="100" height="100" viewBox="0 0 100 100" fill="none" xmlns="http://www.w3.org/2000/svg">
<circle cx="50" cy="50" r="50" fill="#DCF1FF"/>
<path d="M40.2708 65.9364H62.7759V40.6234C61.3189 39.1421 59.586 37.9928 56.8938 37.9928C49.3309 37.9928 49.3309 47.0679 41.768 47.0679C41.2322 47.0679 40.7355 47.0222 40.2708 46.9373V65.9364Z" fill="#B3E59F"/>
<path d="M41.768 47.0679C42.1745 47.0679 42.5586 47.0413 42.9237 46.9915V65.9363H40.2708V46.9373C40.7354 47.0222 41.2322 47.0679 41.768 47.0679Z" fill="#95D6A4"/>
<path d="M40.2707 65.8971V46.8981C34.8715 45.9176 33.8602 39.6695 28.8303 38.2444V65.8971H40.2707Z" fill="#FFE177"/>
<path d="M31.4832 39.6366V65.8971H28.8303V38.2444C29.8586 38.5351 30.7192 39.0286 31.4832 39.6366Z" fill="#FFD15B"/>
<path d="M72.0357 65.9355H62.792V40.6226C65.4311 43.302 67.164 47.067 72.0357 47.067V65.9355Z" fill="#FFE177"/>
<path d="M65.4454 43.6722V65.9354H62.7925V40.6225C63.7306 41.5754 64.554 42.6641 65.4454 43.6722Z" fill="#FFD15B"/>
<path d="M76.7668 65.262L72.2455 60.7407C71.9346 60.4299 71.4308 60.4299 71.12 60.7407C70.8092 61.0515 70.8092 61.5555 71.12 61.8662L74.283 65.0291H63.1637V42.6008C63.2549 42.7097 63.346 42.8189 63.4374 42.9286C65.3218 45.1897 67.4575 47.7524 71.6117 47.7524C72.0513 47.7524 72.4076 47.3961 72.4076 46.9565C72.4076 46.517 72.0513 46.1607 71.6117 46.1607C68.2029 46.1607 66.4821 44.0958 64.6602 41.9095C62.7757 39.6483 60.6401 37.0856 56.4859 37.0856C52.3328 37.0856 50.1972 39.6477 48.3129 41.9081C47.485 42.9012 46.703 43.8394 45.7736 44.5942C45.4325 44.8714 45.3805 45.3726 45.6576 45.7137C45.9347 46.055 46.4361 46.1068 46.7772 45.8297C47.8267 44.9773 48.6954 43.9351 49.5355 42.9271C51.3573 40.7415 53.0781 38.6773 56.4859 38.6773C58.7521 38.6773 60.272 39.5905 61.572 40.8448V65.0291H58.2772C57.8375 65.0291 57.4813 65.3854 57.4813 65.8249C57.4813 66.2645 57.8375 66.6208 58.2772 66.6208H74.2823L71.1199 69.7832C70.809 70.094 70.809 70.5979 71.1199 70.9086C71.2753 71.0641 71.479 71.1418 71.6827 71.1418C71.8863 71.1418 72.0901 71.0641 72.2455 70.9086L76.7668 66.3873C77.0776 66.0767 77.0776 65.5728 76.7668 65.262Z" fill="black"/>
<path d="M54.5631 65.0292H40.6587V47.7263C40.8862 47.743 41.1194 47.7524 41.3602 47.7524C41.9432 47.7524 42.5088 47.7018 43.0414 47.6019C43.4734 47.5209 43.7579 47.105 43.6769 46.673C43.5958 46.241 43.1803 45.9567 42.748 46.0375C42.3119 46.1193 41.8451 46.1608 41.3603 46.1608C37.9527 46.1608 36.2321 44.0963 34.4105 41.9106C32.9876 40.2033 31.5194 38.4432 29.2184 37.5957V27.5157L32.3811 30.6783C32.5364 30.8337 32.7402 30.9115 32.9438 30.9115C33.1474 30.9115 33.3512 30.8338 33.5065 30.6783C33.8174 30.3675 33.8174 29.8636 33.5065 29.5529L28.9854 25.0317C28.9668 25.0131 28.9472 24.9955 28.9268 24.9788C28.918 24.9715 28.9085 24.9652 28.8995 24.9584C28.8878 24.9496 28.8764 24.9405 28.8643 24.9325C28.8533 24.9252 28.8419 24.9188 28.8307 24.912C28.8196 24.9054 28.8088 24.8985 28.7974 24.8924C28.786 24.8862 28.7742 24.881 28.7625 24.8755C28.7506 24.8699 28.7391 24.864 28.7269 24.8589C28.7155 24.8543 28.7039 24.8505 28.6925 24.8463C28.6795 24.8416 28.6667 24.8367 28.6533 24.8326C28.642 24.8292 28.6304 24.8267 28.6188 24.8238C28.6052 24.8203 28.5917 24.8166 28.5778 24.8137C28.5648 24.8112 28.5518 24.8097 28.5388 24.8078C28.5261 24.8059 28.5137 24.8036 28.5007 24.8023C28.4778 24.8001 28.4549 24.7991 28.432 24.7988C28.4288 24.7988 28.4257 24.7982 28.4225 24.7982C28.4193 24.7982 28.4163 24.7987 28.4131 24.7988C28.3902 24.7991 28.3671 24.8001 28.3443 24.8023C28.3314 24.8036 28.3189 24.8059 28.3062 24.8078C28.2933 24.8097 28.2802 24.8112 28.2673 24.8137C28.2534 24.8165 28.2398 24.8203 28.2261 24.8238C28.2146 24.8267 28.2031 24.8292 28.1917 24.8326C28.1785 24.8367 28.1656 24.8416 28.1526 24.8463C28.1411 24.8505 28.1294 24.8543 28.1182 24.8589C28.1061 24.8639 28.0944 24.8699 28.0825 24.8755C28.0709 24.881 28.0591 24.8862 28.0476 24.8924C28.0363 24.8985 28.0254 24.9054 28.0143 24.912C28.0031 24.9187 27.9917 24.9251 27.9808 24.9324C27.9686 24.9405 27.9571 24.9496 27.9453 24.9584C27.9363 24.9652 27.927 24.9714 27.9182 24.9786C27.8978 24.9953 27.8783 25.0129 27.8596 25.0316L23.3384 29.5529C23.0276 29.8637 23.0276 30.3676 23.3384 30.6783C23.4938 30.8337 23.6975 30.9115 23.9011 30.9115C24.1048 30.9115 24.3085 30.8338 24.4639 30.6783L27.6267 27.5157V65.0292H23.7959C23.3563 65.0292 23 65.3855 23 65.825C23 66.2646 23.3563 66.6209 23.7959 66.6209H27.6267V71.4907C27.6267 71.9302 27.983 72.2865 28.4225 72.2865C28.8621 72.2865 29.2184 71.9302 29.2184 71.4907V66.6209H54.5631C55.0028 66.6209 55.359 66.2646 55.359 65.825C55.359 65.3855 55.0028 65.0292 54.5631 65.0292ZM29.2184 39.3255C30.8262 40.1004 31.9799 41.4802 33.1877 42.9295C34.6892 44.7313 36.3517 46.7232 39.0669 47.4583V65.0293H29.2184V39.3255Z" fill="black"/>
<path d="M51.2124 55.3455C50.7279 55.3455 50.4514 55.082 50.3783 55.0013C50.0831 54.6756 49.5799 54.6508 49.2541 54.946C48.9284 55.2411 48.9036 55.7444 49.1988 56.0702C49.6982 56.6212 50.4322 56.9374 51.2125 56.9374C52.212 56.9374 53.0532 56.289 53.2127 55.3958C53.3291 54.7437 53.0401 53.8256 51.8428 53.3841C51.4107 53.2246 51.004 53.0525 50.8145 52.9705C50.8211 52.9459 50.8533 52.9074 50.9388 52.8816C51.3219 52.7661 51.8264 53.0381 51.9739 53.1431C52.3273 53.4003 52.8229 53.3244 53.0826 52.972C53.3435 52.6183 53.2683 52.12 52.9146 51.8591C52.793 51.7693 51.6912 50.9926 50.4798 51.3576C49.8083 51.5598 49.3325 52.0935 49.2382 52.7503C49.1487 53.3736 49.4192 53.9731 49.944 54.3153C49.9792 54.3383 50.016 54.3583 50.0544 54.3754C50.0784 54.3861 50.6494 54.6404 51.292 54.8773C51.5708 54.9802 51.6496 55.0946 51.6458 55.1161C51.6335 55.1835 51.4917 55.3455 51.2124 55.3455Z" fill="black"/>
<path d="M40.6585 69.4357C40.319 69.4357 40.03 69.6487 39.9156 69.948C39.5664 69.777 39.1741 69.6806 38.7598 69.6806C37.3051 69.6806 36.1218 70.864 36.1218 72.3186C36.1218 73.7732 37.3052 74.9565 38.7598 74.9565C39.1741 74.9565 39.5664 74.8602 39.9156 74.6892C40.03 74.9884 40.319 75.2014 40.6585 75.2014C41.098 75.2014 41.4544 74.8451 41.4544 74.4056V70.2315C41.4544 69.7921 41.098 69.4357 40.6585 69.4357ZM38.7599 73.3648C38.1829 73.3648 37.7137 72.8954 37.7137 72.3186C37.7137 71.7417 38.183 71.2724 38.7599 71.2724C39.3367 71.2724 39.8061 71.7417 39.8061 72.3186C39.806 72.8955 39.3367 73.3648 38.7599 73.3648Z" fill="black"/>
<path d="M62.368 69.4937C61.9081 69.4937 61.4809 69.6037 61.1059 69.7977V68.2679C61.1059 67.8284 60.7497 67.4721 60.31 67.4721C59.8704 67.4721 59.5142 67.8284 59.5142 68.2679V74.4056C59.5142 74.8451 59.8704 75.2015 60.31 75.2015C60.5936 75.2015 60.8418 75.0528 60.9828 74.8295C61.3862 75.0657 61.857 75.2015 62.368 75.2015C63.9417 75.2015 65.222 73.9213 65.222 72.3476C65.222 70.7739 63.9417 69.4937 62.368 69.4937ZM62.368 73.6097C61.672 73.6097 61.1059 73.0436 61.1059 72.3476C61.1059 71.6516 61.672 71.0853 62.368 71.0853C63.0641 71.0853 63.6303 71.6516 63.6303 72.3476C63.6303 73.0436 63.064 73.6097 62.368 73.6097Z" fill="black"/>
<path d="M42.9863 31.1861V34.4192C42.9863 34.8587 43.3427 35.215 43.7822 35.215C44.2217 35.215 44.5781 34.8587 44.5781 34.4192V31.1932H44.7001C45.1396 31.1932 45.496 30.8369 45.496 30.3974C45.496 29.9578 45.1396 29.6015 44.7001 29.6015H44.5781V29.0655C44.6532 29.0557 44.7565 29.0553 44.8343 29.067C45.2652 29.1375 45.6733 28.8474 45.7473 28.4163C45.8217 27.983 45.5309 27.5716 45.0977 27.4972C44.9334 27.469 44.0837 27.3536 43.4892 27.8546C43.1649 28.128 42.9863 28.5316 42.9863 28.9913V29.6086C42.5944 29.6583 42.2913 29.9921 42.2913 30.3974C42.2913 30.8026 42.5945 31.1365 42.9863 31.1861Z" fill="black"/>
<path d="M51.7201 34.0363C51.8637 34.1445 52.0319 34.1967 52.1987 34.1967C52.4399 34.1967 52.6784 34.0874 52.8347 33.88L53.8301 32.5599L54.8887 33.9549C55.0454 34.1612 55.283 34.2696 55.5233 34.2696C55.6909 34.2696 55.86 34.2168 56.0038 34.1077C56.354 33.842 56.4223 33.3428 56.1566 32.9926L54.8259 31.2392L55.927 29.7789C56.1916 29.4279 56.1216 28.9289 55.7707 28.6643C55.4195 28.3994 54.9206 28.4696 54.656 28.8206L53.8259 29.9215L52.9888 28.8186C52.7231 28.4685 52.2237 28.3999 51.8737 28.6657C51.5235 28.9315 51.4551 29.4306 51.7208 29.7808L52.83 31.2422L51.5637 32.9216C51.2991 33.2727 51.3692 33.7717 51.7201 34.0363Z" fill="black"/>
<path d="M48.4848 34.6407C48.5527 34.6407 48.6217 34.6319 48.6903 34.6137C49.115 34.5004 49.3675 34.0643 49.2543 33.6396C48.5577 31.0265 49.2123 29.2558 49.2259 29.2201C49.3861 28.8129 49.1876 28.3523 48.7808 28.1896C48.3727 28.0264 47.9096 28.225 47.7463 28.6331C47.7102 28.7234 46.8715 30.8812 47.7163 34.0497C47.8111 34.4058 48.133 34.6407 48.4848 34.6407Z" fill="black"/>
<path d="M58.4677 33.6396C58.3546 34.0643 58.6071 34.5004 59.0317 34.6137C59.1003 34.6319 59.1694 34.6407 59.2373 34.6407C59.589 34.6407 59.9109 34.4057 60.0058 34.0497C60.8506 30.8812 60.0119 28.7234 59.9758 28.6331C59.8126 28.225 59.3494 28.0264 58.9412 28.1896C58.5331 28.3528 58.3346 28.816 58.4978 29.2241C58.5047 29.2414 59.1666 31.0186 58.4677 33.6396Z" fill="black"/>
<path d="M83.5545 4C83.5545 4 84.7572 11.8893 94.1091 12.4348C84.7572 12.9803 83.5545 20.8696 83.5545 20.8696C83.5545 20.8696 82.3518 12.9803 73 12.4348C82.3518 11.8893 83.5545 4 83.5545 4Z" fill="#0EBED9"/>
<path d="M15.5 81C15.5 81 16.2407 86.1443 22 86.5C16.2407 86.8557 15.5 92 15.5 92C15.5 92 14.7593 86.8557 9 86.5C14.7593 86.1443 15.5 81 15.5 81Z" fill="#0EBED9"/>
</svg>
