<svg width="7" height="5" viewBox="0 0 7 5" fill="none" xmlns="http://www.w3.org/2000/svg">
<path d="M6.83371 0.503213L6.4968 0.166195C6.38005 0.055409 6.24369 0 6.08804 0C5.92918 0 5.79444 0.055409 5.68361 0.166195L3.50001 2.34985L1.31643 0.166258C1.20561 0.0554719 1.07084 6.30323e-05 0.912038 6.30323e-05C0.756308 6.30323e-05 0.61998 0.0554719 0.503214 0.166258L0.170728 0.503275C0.0568883 0.617036 0 0.753363 0 0.912131C0 1.07386 0.0569512 1.20864 0.170712 1.31645L3.09561 4.24136C3.20348 4.35513 3.3382 4.41207 3.49999 4.41207C3.65874 4.41207 3.79506 4.35515 3.90879 4.24136L6.83369 1.31645C6.94453 1.2056 6.99998 1.07084 6.99998 0.912131C7 0.756322 6.94454 0.620073 6.83371 0.503213Z" fill="#1D1D1B"/>
</svg>
