<svg width="10" height="13" viewBox="0 0 10 13" fill="none" xmlns="http://www.w3.org/2000/svg">
<path d="M5.00165 0.168457C7.39802 0.168457 9.3476 2.11803 9.3476 4.51438C9.3476 7.48832 5.4584 11.8542 5.29281 12.0386C5.13728 12.2119 4.86573 12.2116 4.71048 12.0386C4.5449 11.8542 0.655703 7.48832 0.655703 4.51438C0.655749 2.11803 2.6053 0.168457 5.00165 0.168457ZM5.00165 6.70093C6.20732 6.70093 7.18818 5.72005 7.18818 4.51438C7.18818 3.30871 6.2073 2.32785 5.00165 2.32785C3.796 2.32785 2.81514 3.30873 2.81514 4.5144C2.81514 5.72007 3.796 6.70093 5.00165 6.70093Z" fill="#0EBED9"/>
</svg>
