<svg width="269" height="89" viewBox="0 0 269 89" fill="none" xmlns="http://www.w3.org/2000/svg">
<g clip-path="url(#clip0_301_9000)">
<path d="M133.707 58.3719H140.624V64.6406C138.968 66.1243 136.845 66.9587 134.637 66.9939C133.638 67.0347 132.642 66.8677 131.708 66.5032C130.775 66.1388 129.925 65.5845 129.21 64.8745C128.495 64.1644 127.931 63.3134 127.551 62.3738C127.171 61.4341 126.984 60.4255 127.001 59.4099C127.001 55.0012 130.501 51.836 134.951 51.836C136.59 51.7873 138.206 52.246 139.583 53.1514L139.805 56.1727H139.411C138.148 55.135 136.584 54.5498 134.961 54.5079C134.304 54.4573 133.644 54.5475 133.023 54.7727C132.402 54.9979 131.835 55.3531 131.359 55.8153C130.882 56.2774 130.506 56.8363 130.255 57.4555C130.005 58.0747 129.885 58.7406 129.904 59.4099C129.86 60.0681 129.956 60.7283 130.185 61.3457C130.414 61.9632 130.77 62.5236 131.23 62.9891C131.691 63.4547 132.244 63.8146 132.852 64.0445C133.461 64.2744 134.111 64.3691 134.759 64.322C135.812 64.3631 136.849 64.0527 137.712 63.4383V60.8691H133.666V58.3719H133.707Z" fill="#1D1D1B"/>
<path d="M154.642 60.2628H148.948V66.6959H146.036V52.134H148.948V57.7656H154.642V52.134H157.545V66.6959H154.642V60.2628Z" fill="#1D1D1B"/>
<path d="M171.471 62.165C171.885 62.8247 172.446 63.376 173.108 63.7742C173.771 64.1723 174.516 64.4062 175.284 64.4567C175.534 64.4836 175.786 64.4554 176.023 64.3741C176.261 64.2928 176.479 64.1603 176.661 63.9855C176.844 63.8108 176.987 63.5981 177.081 63.3619C177.175 63.1257 177.217 62.8717 177.206 62.6172C177.206 61.3018 176.265 60.8188 174.667 60.0788C172.473 59.0512 171.198 57.8077 171.198 55.8346C171.212 55.2812 171.336 54.7362 171.562 54.2325C171.788 53.7288 172.112 53.2768 172.515 52.9034C172.917 52.5301 173.389 52.2432 173.904 52.06C174.418 51.8767 174.963 51.8009 175.507 51.837C176.787 51.7418 178.056 52.1337 179.067 52.9366L179.178 56.0196H178.915C178.513 55.5008 178.008 55.0735 177.433 54.7655C176.858 54.4575 176.226 54.2755 175.578 54.2315C174.566 54.2315 173.818 54.6939 173.818 55.6908C173.818 56.6876 174.698 57.1398 176.731 58.1058C178.763 59.0717 180.129 60.233 180.129 62.5349C180.129 65.1657 178.248 66.9744 175.446 66.9744C173.886 67.0217 172.357 66.5208 171.117 65.5563L171.279 62.1444H171.482L171.471 62.165Z" fill="#1D1D1B"/>
<path d="M196.695 62.8629L196.472 65.8842C195.241 66.665 193.806 67.0484 192.356 66.9838C190.379 66.9838 188.483 66.1859 187.085 64.7655C185.688 63.3451 184.902 61.4187 184.902 59.41C184.902 57.4013 185.688 55.4749 187.085 54.0545C188.483 52.6342 190.379 51.8362 192.356 51.8362C193.806 51.7749 195.24 52.158 196.472 52.9358L196.695 55.9365H196.3C195.221 55.0246 193.871 54.5103 192.467 54.4773C191.185 54.4773 189.956 54.9948 189.049 55.916C188.142 56.8372 187.633 58.0867 187.633 59.3895C187.633 60.6922 188.142 61.9417 189.049 62.8629C189.956 63.7841 191.185 64.3016 192.467 64.3016C193.871 64.2702 195.222 63.7557 196.3 62.8424H196.695V62.8629Z" fill="#1D1D1B"/>
<path d="M210.611 60.2625H204.917V66.6956H202.015V52.1338H204.917V57.7653H210.611V52.1338H213.524V66.6956H210.611V60.2625Z" fill="#1D1D1B"/>
<path d="M226.277 51.8266C227.743 51.865 229.165 52.3416 230.365 53.1968C231.565 54.052 232.49 55.2479 233.025 56.6347C233.56 58.0216 233.681 59.5379 233.372 60.994C233.063 62.4501 232.338 63.7813 231.288 64.8211C230.239 65.8608 228.911 66.563 227.47 66.8398C226.03 67.1165 224.541 66.9556 223.19 66.377C221.839 65.7985 220.686 64.8281 219.876 63.5872C219.065 62.3462 218.632 60.8899 218.631 59.4004C218.624 58.3871 218.818 57.3828 219.202 56.4476C219.586 55.5125 220.153 54.6659 220.867 53.9585C221.581 53.2512 222.428 52.6977 223.358 52.3314C224.288 51.965 225.281 51.7933 226.277 51.8266ZM226.277 64.4359C227.269 64.4831 228.251 64.2275 229.098 63.7021C229.945 63.1767 230.617 62.4056 231.029 61.4881C231.44 60.5706 231.572 59.549 231.406 58.5548C231.241 57.5607 230.786 56.6397 230.101 55.9106C229.416 55.1815 228.531 54.6777 227.561 54.4642C226.592 54.2508 225.581 54.3374 224.66 54.713C223.739 55.0885 222.95 55.7358 222.395 56.5713C221.84 57.4067 221.543 58.3921 221.544 59.4004C221.5 60.0539 221.591 60.7096 221.811 61.3256C222.03 61.9415 222.373 62.5043 222.819 62.978C223.264 63.4517 223.801 63.826 224.397 64.077C224.992 64.328 225.633 64.4502 226.277 64.4359Z" fill="#1D1D1B"/>
<path d="M245.322 51.8268C246.787 51.8652 248.209 52.3418 249.409 53.1971C250.609 54.0523 251.535 55.2481 252.069 56.635C252.604 58.0219 252.725 59.5382 252.416 60.9943C252.107 62.4503 251.382 63.7815 250.333 64.8213C249.283 65.8611 247.955 66.5633 246.514 66.84C245.074 67.1168 243.585 66.9558 242.234 66.3773C240.883 65.7988 239.73 64.8283 238.92 63.5874C238.109 62.3465 237.676 60.8901 237.676 59.4006C237.668 58.3873 237.862 57.383 238.247 56.4479C238.631 55.5127 239.197 54.6661 239.911 53.9588C240.625 53.2514 241.472 52.698 242.402 52.3316C243.332 51.9653 244.325 51.7936 245.322 51.8268ZM245.322 64.4361C246.313 64.4834 247.295 64.2278 248.142 63.7024C248.989 63.1769 249.661 62.4058 250.073 61.4883C250.484 60.5709 250.616 59.5492 250.451 58.5551C250.285 57.561 249.83 56.6399 249.145 55.9108C248.46 55.1817 247.575 54.6779 246.605 54.4645C245.636 54.251 244.625 54.3377 243.704 54.7132C242.784 55.0888 241.995 55.736 241.439 56.5715C240.884 57.407 240.587 58.3924 240.588 59.4006C240.543 60.0545 240.633 60.7109 240.852 61.3275C241.07 61.9442 241.414 62.5076 241.859 62.9817C242.305 63.4557 242.843 63.83 243.439 64.0804C244.035 64.3309 244.677 64.4521 245.322 64.4361Z" fill="#1D1D1B"/>
<path d="M258.075 52.1348H260.988V64.1994H267.996V66.6966H258.075V52.1348Z" fill="#1D1D1B"/>
<path d="M108.807 23.0005L115.158 37.5726H112.337L111.275 35.0754H105.5L104.438 37.5726H101.626L107.978 23.0005H108.837H108.807ZM106.511 32.5679H110.233L108.382 28.1901L106.511 32.5679Z" fill="#1D1D1B"/>
<path d="M122.926 30.9345V37.5628H120.013V23.001H122.926V29.6088L127.942 23.001H131.097L125.707 30.0507L131.603 37.5628H128.165L122.926 30.9345Z" fill="#1D1D1B"/>
<path d="M141.959 23.0002L148.301 37.5724H145.479L144.417 35.0752H138.642L137.57 37.5724H134.748L141.069 23.0002H141.929H141.959ZM139.664 32.5677H143.385L141.525 28.1899L139.664 32.5677Z" fill="#1D1D1B"/>
<path d="M153.206 23.0002H156.726C161.206 23.0002 164.362 25.6619 164.362 30.2863C164.362 34.9107 161.206 37.5621 156.726 37.5621H153.206V23.0002ZM156.119 35.0238H156.736C159.77 35.0238 161.59 33.2151 161.59 30.2863C161.59 27.3575 159.75 25.5385 156.736 25.5385H156.119V35.0238Z" fill="#1D1D1B"/>
<path d="M170.207 23.0002H179.32V25.4974H173.11V28.827H179.087V31.3242H173.11V35.0649H179.4V37.5621H170.207V23.0002Z" fill="#1D1D1B"/>
<path d="M198.283 23.0007L202.096 37.5626H199.244L197.18 29.8449L193.671 37.5626H193.013L189.524 29.8449L187.451 37.5626H184.609L188.412 23.0007H189.352L193.347 31.9619L197.342 23.0007H198.283Z" fill="#1D1D1B"/>
<path d="M207.051 23.0005H216.174V25.4977H209.954V28.8273H215.941V31.3245H209.954V35.0651H216.245V37.5623H207.051V23.0005Z" fill="#1D1D1B"/>
<path d="M222.222 23H225.124V30.2758V37.5618H222.222V30.2758V23Z" fill="#1D1D1B"/>
<path d="M237.15 23.0005L243.501 37.5726H240.679L239.617 35.0754H233.842L232.78 37.5726H229.959L236.31 23.0005H237.15ZM234.854 32.5679H238.586L236.765 28.1901L234.854 32.5679Z" fill="#1D1D1B"/>
<path d="M108.807 23.0005L115.158 37.5726H112.337L111.275 35.0754H105.5L104.438 37.5726H101.626L107.978 23.0005H108.837H108.807ZM106.511 32.5679H110.233L108.382 28.1901L106.511 32.5679Z" fill="#1D1D1B"/>
<path d="M111.082 60.263H105.388V66.6961H102.486V52.1343H105.388V57.7658H111.082V52.1343H113.995V66.6961H111.082V60.263Z" fill="#1D1D1B"/>
<path d="M119.73 52.1345H122.632V59.4206V66.6964H119.73V59.4206V52.1345Z" fill="#1D1D1B"/>
<path d="M39.2906 0L0.00378418 22.25V66.75L39.2906 89L78.588 66.75V22.25L39.2906 0ZM75.6324 42.5952L44.6896 6.40498L75.6324 23.9245V42.5952ZM43.8893 22.6058L22.0266 34.9972L35.8335 80.3658L5.16804 44.4895L38.629 5.34795L43.8893 22.6058ZM26.2519 38.7648L36.3457 44.4895L29.2288 48.5293L26.2519 38.7648ZM39.2906 46.164L52.8414 53.8458L39.568 82.5113L30.0931 51.3759L39.2906 46.164ZM26.7107 35.6984L44.7536 25.442L52.2759 50.1619L26.7107 35.6984ZM56.3198 53.354L42.6943 8.58184L73.4024 44.5105L45.063 77.6552L56.3198 53.354ZM33.9129 6.41546L2.97003 42.5848V23.914L33.9129 6.41546ZM2.97003 46.4257L33.9129 82.6264L2.97003 65.0964V46.3734V46.4257ZM44.6896 82.6264L75.6324 46.4047V65.086L44.6896 82.6264Z" fill="#9B8764"/>
</g>
<defs>
<clipPath id="clip0_301_9000">
<rect width="269" height="89" fill="white"/>
</clipPath>
</defs>
</svg>
