<svg width="9" height="6" viewBox="0 0 9 6" fill="none" xmlns="http://www.w3.org/2000/svg">
<path d="M8.78623 0.73132L8.35306 0.241532C8.20296 0.080526 8.02764 0 7.82751 0C7.62326 0 7.45002 0.080526 7.30752 0.241532L4.50003 3.41504L1.69255 0.241624C1.55007 0.0806174 1.3768 9.1605e-05 1.17263 9.1605e-05C0.972399 9.1605e-05 0.797121 0.0806174 0.646992 0.241624L0.219508 0.731411C0.0731424 0.89674 0 1.09486 0 1.3256C0 1.56064 0.0732233 1.75652 0.219488 1.91321L3.98008 6.16397C4.11878 6.32932 4.29199 6.41207 4.50001 6.41207C4.70412 6.41207 4.87938 6.32935 5.0256 6.16397L8.78621 1.91321C8.92871 1.75211 9.00002 1.55625 9.00002 1.3256C9.00004 1.09916 8.92873 0.901154 8.78623 0.73132Z" fill="#0EBED9"/>
</svg>
