<svg width="484" height="431" viewBox="0 0 484 431" fill="none" xmlns="http://www.w3.org/2000/svg">
<path d="M42.2769 239.675C91.4045 345.341 207.489 395.126 301.558 350.874C395.628 306.621 435.044 159.882 385.917 54.2159C336.789 -51.4502 269.966 79.1296 175.896 123.382C81.827 167.634 -6.85069 134.009 42.2769 239.675Z" fill="#F1F6FF"/>
<path d="M204.253 345.184C313.568 345.184 402.186 340.015 402.186 333.638C402.186 327.261 313.568 322.091 204.253 322.091C94.9373 322.091 6.31958 327.261 6.31958 333.638C6.31958 340.015 94.9373 345.184 204.253 345.184Z" fill="#EDEDED"/>
<path d="M75.0332 333.056L49.3077 323.591L23.2964 333.067C23.0881 333.142 22.8648 333.166 22.6453 333.137C22.4257 333.108 22.2165 333.026 22.0352 332.899C21.8539 332.772 21.7059 332.603 21.6038 332.407C21.5017 332.211 21.4485 331.993 21.4486 331.771C21.4481 331.509 21.5229 331.253 21.664 331.032C21.8052 330.812 22.0068 330.636 22.2449 330.527L49.3077 317.94L76.0949 330.486C76.3322 330.596 76.5331 330.772 76.6741 330.993C76.8151 331.213 76.8904 331.469 76.8912 331.73C76.8969 331.956 76.8474 332.179 76.7468 332.38C76.6463 332.582 76.4979 332.755 76.3145 332.886C76.1311 333.017 75.9184 333.101 75.695 333.131C75.4717 333.16 75.2444 333.135 75.0332 333.056Z" fill="#263238"/>
<path opacity="0.3" d="M75.0332 333.056L49.3077 323.591L23.2964 333.067C23.0881 333.142 22.8648 333.166 22.6453 333.137C22.4257 333.108 22.2165 333.026 22.0352 332.899C21.8539 332.772 21.7059 332.603 21.6038 332.407C21.5017 332.211 21.4485 331.993 21.4486 331.771C21.4481 331.509 21.5229 331.253 21.664 331.032C21.8052 330.812 22.0068 330.636 22.2449 330.527L49.3077 317.94L76.0949 330.486C76.3322 330.596 76.5331 330.772 76.6741 330.993C76.8151 331.213 76.8904 331.469 76.8912 331.73C76.8969 331.956 76.8474 332.179 76.7468 332.38C76.6463 332.582 76.4979 332.755 76.3145 332.886C76.1311 333.017 75.9184 333.101 75.695 333.131C75.4717 333.16 75.2444 333.135 75.0332 333.056Z" fill="white"/>
<path opacity="0.2" d="M43.2439 325.794L49.3078 323.591L55.0858 325.723V320.684L49.3078 317.981L43.2439 320.786V325.794Z" fill="black"/>
<path d="M49.1647 333.24C48.5956 333.246 48.0444 333.041 47.6181 332.664C47.1919 332.287 46.9208 331.765 46.8576 331.2L46.1328 323.581V260.341H52.166V323.581L51.4412 331.2C51.3808 331.761 51.1148 332.279 50.6945 332.656C50.2742 333.033 49.7293 333.241 49.1647 333.24Z" fill="#263238"/>
<path opacity="0.3" d="M49.1647 333.24C48.5956 333.246 48.0444 333.041 47.6181 332.664C47.1919 332.287 46.9208 331.765 46.8576 331.2L46.1328 323.581V260.341H52.166V323.581L51.4412 331.2C51.3808 331.761 51.1148 332.279 50.6945 332.656C50.2742 333.033 49.7293 333.241 49.1647 333.24Z" fill="white"/>
<path opacity="0.2" d="M52.1662 260.33H46.1636V267.695H52.1662V260.33Z" fill="black"/>
<path d="M35.71 195.163C36.1754 195.151 36.635 195.267 37.0385 195.499C37.4419 195.731 37.7735 196.07 37.9967 196.478C48.9813 214.866 52.927 236.608 49.1036 257.678C49.0453 258.21 48.7979 258.704 48.4063 259.069C48.0148 259.434 47.5051 259.646 46.97 259.667C45.306 259.79 15.6808 259.667 14.6089 259.667C14.1701 259.678 13.7343 259.591 13.3327 259.414C12.9312 259.237 12.5738 258.973 12.2861 258.642C11.9984 258.31 11.7875 257.92 11.6684 257.497C11.5494 257.075 11.5251 256.632 11.5974 256.199C15.0572 236.581 11.3126 216.374 1.05201 199.294C0.81475 198.869 0.694646 198.389 0.703999 197.903C0.713351 197.417 0.851824 196.942 1.10524 196.527C1.35865 196.112 1.7179 195.771 2.14622 195.541C2.57455 195.31 3.05655 195.197 3.54289 195.214C4.40041 195.142 33.8214 195.193 35.71 195.163Z" fill="#0EBED9"/>
<path opacity="0.2" d="M35.71 195.163C36.1754 195.151 36.635 195.267 37.0385 195.499C37.4419 195.731 37.7735 196.07 37.9967 196.478C48.9813 214.866 52.927 236.608 49.1036 257.678C49.0453 258.21 48.7979 258.704 48.4063 259.069C48.0148 259.434 47.5051 259.646 46.97 259.667C45.306 259.79 15.6808 259.667 14.6089 259.667C14.1701 259.678 13.7343 259.591 13.3327 259.414C12.9312 259.237 12.5738 258.973 12.2861 258.642C11.9984 258.31 11.7875 257.92 11.6684 257.497C11.5494 257.075 11.5251 256.632 11.5974 256.199C15.0572 236.581 11.3126 216.374 1.05201 199.294C0.81475 198.869 0.694646 198.389 0.703999 197.903C0.713351 197.417 0.851824 196.942 1.10524 196.527C1.35865 196.112 1.7179 195.771 2.14622 195.541C2.57455 195.31 3.05655 195.197 3.54289 195.214C4.40041 195.142 33.8214 195.193 35.71 195.163Z" fill="black"/>
<path d="M11.5974 256.179C15.0572 236.56 11.3126 216.353 1.05202 199.273C-0.785513 196.213 4.00229 193.429 5.83982 196.478C16.8192 214.868 20.7645 236.608 16.9467 257.678C16.3138 261.177 10.9645 259.718 11.5974 256.21V256.179Z" fill="#0EBED9"/>
<g opacity="0.1">
<path opacity="0.1" d="M11.5974 256.179C15.0572 236.56 11.3126 216.353 1.05202 199.273C-0.785513 196.213 4.00229 193.429 5.83982 196.478C16.8192 214.868 20.7645 236.608 16.9467 257.678C16.3138 261.177 10.9645 259.718 11.5974 256.21V256.179Z" fill="white"/>
</g>
<path d="M104.026 254.578C97.2334 252.85 90.2681 251.892 83.2614 251.722C76.0439 251.538 49.0628 251.722 42.6518 251.722C34.8369 251.711 27.0515 252.681 19.4785 254.608C14.7213 255.822 16.1811 262.676 20.4993 262.768C20.877 262.768 102.474 262.768 102.77 262.768C107.19 262.931 108.834 255.812 104.026 254.578Z" fill="#0EBED9"/>
<path opacity="0.3" d="M104.026 254.578C97.2334 252.85 90.2681 251.892 83.2614 251.722C76.0439 251.538 49.0628 251.722 42.6518 251.722C34.8369 251.711 27.0515 252.681 19.4785 254.608C14.7213 255.822 16.1811 262.676 20.4993 262.768C20.877 262.768 102.474 262.768 102.77 262.768C107.19 262.931 108.834 255.812 104.026 254.578Z" fill="black"/>
<path d="M21.6324 262.585C35.3886 259.086 49.8027 259.086 63.5589 262.585C68.7448 263.9 70.96 255.893 65.7741 254.578C50.5661 250.722 34.6353 250.722 19.4274 254.578C14.2414 255.893 16.4363 263.9 21.6324 262.585Z" fill="#0EBED9"/>
<g opacity="0.3">
<path opacity="0.3" d="M21.6324 262.585C35.3886 259.086 49.8027 259.086 63.5589 262.585C68.7448 263.9 70.96 255.893 65.7741 254.578C50.5661 250.722 34.6353 250.722 19.4274 254.578C14.2414 255.893 16.4363 263.9 21.6324 262.585Z" fill="white"/>
</g>
<path d="M96.7366 211.228L106.118 210.83L108.926 209.035C109.253 208.823 109.62 208.681 110.005 208.617C110.39 208.554 110.783 208.571 111.161 208.667L113.203 209.167C113.718 209.296 114.259 209.28 114.766 209.119C115.272 208.959 115.724 208.661 116.072 208.259C116.35 207.935 116.553 207.552 116.665 207.14C116.776 206.727 116.794 206.294 116.717 205.874C116.64 205.453 116.469 205.055 116.218 204.709C115.967 204.363 115.641 204.078 115.265 203.873L112.202 202.221C111.725 201.961 111.183 201.843 110.64 201.88C110.097 201.918 109.577 202.111 109.14 202.435L104.199 206.087L96.757 205.567L96.7366 211.228Z" fill="#FBD0CD"/>
<path d="M86.5791 174.895L83.3328 203.455L101.596 204.761L100.789 211.319C100.789 211.319 82.3222 214.543 75.5539 212.696C68.7856 210.85 77.7998 179.944 77.7998 179.944L86.5791 174.895Z" fill="#6FA926"/>
<path opacity="0.2" d="M86.5791 174.895L83.3328 203.455L101.596 204.761L100.789 211.319C100.789 211.319 82.3222 214.543 75.5539 212.696C68.7856 210.85 77.7998 179.944 77.7998 179.944L86.5791 174.895Z" fill="white"/>
<path opacity="0.1" d="M80.7194 210.126C75.952 207.647 82.3528 183.871 84.6089 176.038L77.7998 179.965C77.7998 179.965 68.7856 210.871 75.5539 212.717C79.719 213.849 88.2941 213.074 94.2865 212.299C90.2031 212.299 84.2311 211.952 80.7194 210.126Z" fill="black"/>
<path d="M70.4191 230.71C56.9352 233.222 43.1844 233.997 29.5033 233.015C29.5033 233.015 32.6475 196.448 43.7952 176.435C45.5686 173.257 48.4898 170.874 51.9621 169.775C59.9656 167.286 72.8385 165.052 86.5383 174.875C86.5792 174.895 79.6476 187.808 70.4191 230.71Z" fill="#6FA926"/>
<path opacity="0.4" d="M70.4191 230.71C56.9352 233.222 43.1844 233.997 29.5033 233.015C29.5033 233.015 32.6475 196.448 43.7952 176.435C45.5686 173.257 48.4898 170.874 51.9621 169.775C59.9656 167.286 72.8385 165.052 86.5383 174.875C86.5792 174.895 79.6476 187.808 70.4191 230.71Z" fill="white"/>
<path d="M77.0749 184.004C77.0749 184.222 77.0103 184.435 76.8891 184.616C76.768 184.797 76.5958 184.938 76.3943 185.022C76.1929 185.105 75.9712 185.127 75.7573 185.084C75.5434 185.042 75.347 184.937 75.1928 184.783C75.0386 184.629 74.9336 184.432 74.8911 184.219C74.8485 184.005 74.8703 183.784 74.9538 183.582C75.0372 183.381 75.1786 183.209 75.3599 183.088C75.5412 182.967 75.7543 182.902 75.9724 182.902C76.2648 182.902 76.5452 183.018 76.752 183.225C76.9588 183.431 77.0749 183.712 77.0749 184.004Z" fill="#6FA926"/>
<path d="M73.1958 195.234C73.1958 195.452 73.1311 195.665 73.01 195.846C72.8888 196.027 72.7166 196.168 72.5152 196.252C72.3137 196.335 72.092 196.357 71.8781 196.314C71.6643 196.272 71.4678 196.167 71.3136 196.013C71.1595 195.859 71.0544 195.663 71.0119 195.449C70.9694 195.235 70.9912 195.014 71.0747 194.812C71.1581 194.611 71.2994 194.439 71.4807 194.318C71.662 194.197 71.8752 194.132 72.0932 194.132C72.3857 194.132 72.6661 194.248 72.8728 194.455C73.0796 194.662 73.1958 194.942 73.1958 195.234Z" fill="#6FA926"/>
<path d="M68.5712 211.228C69.1801 211.228 69.6737 210.734 69.6737 210.126C69.6737 209.518 69.1801 209.024 68.5712 209.024C67.9622 209.024 67.4686 209.518 67.4686 210.126C67.4686 210.734 67.9622 211.228 68.5712 211.228Z" fill="#6FA926"/>
<path d="M66.7746 222.519C66.7766 222.737 66.7137 222.951 66.5938 223.134C66.4738 223.316 66.3024 223.459 66.1011 223.544C65.8998 223.629 65.6778 223.652 65.4633 223.611C65.2488 223.57 65.0513 223.465 64.8961 223.312C64.7409 223.158 64.6349 222.962 64.5915 222.748C64.5481 222.534 64.5694 222.312 64.6525 222.11C64.7357 221.908 64.877 221.736 65.0585 221.614C65.24 221.493 65.4536 221.428 65.6721 221.428C65.9627 221.428 66.2416 221.542 66.4481 221.747C66.6545 221.951 66.7719 222.229 66.7746 222.519Z" fill="#6FA926"/>
<path opacity="0.1" d="M78.4326 198.141L64.5694 201.262L53.6463 198.263L49.3383 185.962L48.4093 179.047H45.3468C45.3468 179.047 42.4169 201.079 52.4213 210.126C58.6587 215.767 68.8468 212.095 75.6253 208.525C76.6121 204.689 77.5479 201.228 78.4326 198.141Z" fill="black"/>
<path d="M87.4061 297.214L82.5979 318.134L88.5699 320.449L97.1655 299.407L87.4061 297.214Z" fill="#FBD0CD"/>
<path d="M88.2227 319.072L82.8019 316.175C82.6865 316.116 82.5545 316.097 82.4269 316.121C82.2992 316.145 82.1833 316.211 82.0975 316.308L78.2285 320.786C78.145 320.878 78.0809 320.987 78.0397 321.104C77.9986 321.222 77.9813 321.347 77.9889 321.471C77.9965 321.595 78.0289 321.717 78.084 321.829C78.1392 321.941 78.216 322.04 78.3102 322.122C78.3595 322.169 78.4143 322.21 78.4735 322.244C80.75 323.417 82.8223 324.376 85.6195 325.886C88.9373 327.671 87.8756 327.61 91.7446 329.762C94.0721 331.057 95.9403 328.619 95.0113 327.956C90.7748 324.896 90.2031 322.856 89.3252 320.266C89.1116 319.749 88.7207 319.326 88.2227 319.072Z" fill="#263238"/>
<path d="M39.0277 232.321L68.2956 230.71C68.2956 230.71 117.001 238.319 116.276 251.926C115.551 265.532 95.8586 308.434 95.8586 308.434L84.2413 305.21C84.2413 305.21 93.0921 262.075 98.86 254.924C98.86 254.924 62.4869 250.661 53.3809 248.243C48.3277 246.907 36.251 249.161 39.0277 232.321Z" fill="#263238"/>
<path opacity="0.2" d="M93.8885 254.333C94.065 250.299 93.2996 246.28 91.6528 242.593C88.9475 236.473 66.6521 232.811 55.9842 231.373L39.0278 232.301C36.2511 249.141 48.3278 246.887 53.3197 248.223C60.3636 250.11 83.6085 253.078 93.8885 254.333Z" fill="black"/>
<path d="M67.4892 302.977L66.7235 324.427L73.1855 324.733L77.4833 303.283L67.4892 302.977Z" fill="#FBD0CD"/>
<path d="M72.7261 322.785L66.4581 322.918C66.3255 322.918 66.1975 322.966 66.0966 323.052C65.9957 323.137 65.9285 323.256 65.9068 323.387L64.7022 329.282C64.6607 329.533 64.714 329.79 64.8518 330.003C64.9896 330.216 65.202 330.37 65.4474 330.435H65.6516C68.265 330.343 70.5721 330.16 73.8184 330.098C77.6568 330.027 76.687 330.506 81.1992 330.486C83.9147 330.486 84.3536 327.426 83.2409 327.253C77.9631 326.692 76.4114 325.111 74.3493 323.264C73.8871 322.908 73.3081 322.737 72.7261 322.785Z" fill="#263238"/>
<path d="M46.8578 232.321C46.8578 232.321 86.0994 233.708 88.4167 245.704C90.734 257.699 77.565 311.432 77.565 311.432H65.8048C65.8048 311.432 67.183 263.227 71.1132 253.078C71.1132 253.078 38.793 258.178 30.2791 250.824C24.154 245.591 31.4327 232.321 31.4327 232.321H46.8578Z" fill="#263238"/>
<path d="M83.2613 302.671L97.8902 306.74L95.2155 312.361L81.8832 309.056L83.2613 302.671Z" fill="#263238"/>
<path opacity="0.3" d="M83.2613 302.671L97.8902 306.74L95.2155 312.361L81.8832 309.056L83.2613 302.671Z" fill="black"/>
<path d="M82.5876 194.112L94.2764 190.267L101.759 193.612C102.11 193.767 102.419 194.004 102.657 194.305C102.895 194.605 103.057 194.959 103.127 195.336L103.913 199.589C103.978 199.93 103.966 200.281 103.88 200.616C103.793 200.952 103.634 201.264 103.412 201.531C103.191 201.798 102.913 202.013 102.599 202.16C102.286 202.308 101.943 202.384 101.596 202.384C101.045 202.383 100.512 202.192 100.085 201.844L93.5108 196.417L83.3022 200.497L82.5876 194.112Z" fill="#FBD0CD"/>
<path d="M64.641 308.434L79.4229 309.127L78.0346 315.013L64.641 314.319V308.434Z" fill="#263238"/>
<path opacity="0.3" d="M64.641 308.434L79.4229 309.127L78.0346 315.013L64.641 314.319V308.434Z" fill="black"/>
<path d="M46.1022 174.895C48.3787 171.488 52.0027 167.929 61.1802 197.957L88.7126 191.195L89.5191 198.692C89.5191 198.692 67.0603 210.718 58.0462 209.035C49.032 207.352 39.8443 184.259 46.1022 174.895Z" fill="#6FA926"/>
<path opacity="0.2" d="M46.1022 174.895C48.3787 171.488 52.0027 167.929 61.1802 197.957L88.7126 191.195L89.5191 198.692C89.5191 198.692 67.0603 210.718 58.0462 209.035C49.032 207.352 39.8443 184.259 46.1022 174.895Z" fill="white"/>
<path d="M74.88 164.44L69.6635 169.326C69.6635 169.326 71.7052 175.66 76.9013 175.66C82.0974 175.66 78.943 167.643 78.943 167.643L74.88 164.44Z" fill="#FBD0CD"/>
<path d="M77.6365 179.332L80.1682 178.006L81.2401 176.395L80.7909 171.397C76.6081 169.295 72.048 168.046 67.3769 167.725L67.183 170.05L70.0107 178.21L73.3081 179.302L77.6365 179.332Z" fill="#FBD0CD"/>
<path opacity="0.1" d="M78.9533 167.643L74.8699 164.44L74.1758 165.083C73.7776 167.47 73.3182 172.427 75.9622 174.375C76.3703 174.707 76.8523 174.936 77.3676 175.042C77.8829 175.149 78.4163 175.13 78.9227 174.987C81.0869 173.1 78.9533 167.643 78.9533 167.643Z" fill="black"/>
<path d="M76.1868 179.965L80.1069 182.005C82.8632 178.73 82.1486 174.14 81.5463 171.743C81.0869 171.499 80.6275 171.264 80.1681 171.05C80.6887 174.671 80.2702 178.649 75.952 178.771C69.1837 178.975 68.1731 170.326 68.02 167.735L66.5602 167.643C64.4164 177.221 70.419 182.005 70.419 182.005L76.1868 179.965Z" fill="#6FA926"/>
<path opacity="0.2" d="M76.1868 179.965L80.1069 182.005C82.8632 178.73 82.1486 174.14 81.5463 171.743C81.0869 171.499 80.6275 171.264 80.1681 171.05C80.6887 174.671 80.2702 178.649 75.952 178.771C69.1837 178.975 68.1731 170.326 68.02 167.735L66.5602 167.643C64.4164 177.221 70.419 182.005 70.419 182.005L76.1868 179.965Z" fill="white"/>
<path d="M92.9287 152.323C96.665 154.74 95.5625 160.799 91.6628 163.288C90.5603 156.352 92.9287 152.323 92.9287 152.323Z" fill="#263238"/>
<path opacity="0.4" d="M92.9287 152.323C96.665 154.74 95.5625 160.799 91.6628 163.288C90.5603 156.352 92.9287 152.323 92.9287 152.323Z" fill="black"/>
<path d="M75.8193 156.311C74.4207 162.696 73.2672 166.348 75.4824 170.591C76.5084 172.598 78.2898 174.117 80.4355 174.813C82.5811 175.509 84.9156 175.326 86.9262 174.304C88.4627 173.515 89.7256 172.281 90.5502 170.764C93.4903 165.572 95.287 156.005 89.9275 151.558C88.7937 150.561 87.4172 149.88 85.9365 149.584C84.4558 149.288 82.9232 149.387 81.4929 149.871C80.0626 150.355 78.7852 151.207 77.7892 152.341C76.7932 153.475 76.1137 154.851 75.8193 156.331V156.311Z" fill="#FBD0CD"/>
<path d="M75.1455 162.268C78.5654 164.022 80.7602 158.035 80.2498 155.128C84.6905 158.188 94.6745 157.718 97.6043 153.669C100.8 149.232 96.0016 145.509 91.663 144.132C91.3789 144.057 91.0823 144.042 90.7919 144.087C90.5016 144.132 90.2239 144.238 89.9763 144.396C89.7287 144.554 89.5167 144.762 89.3537 145.006C89.1907 145.25 89.0802 145.526 89.0292 145.815C88.9825 146.012 88.8711 146.188 88.7127 146.315C87.7963 145.533 86.8007 144.85 85.742 144.275C85.0013 143.911 84.1638 143.792 83.3508 143.935C82.5378 144.078 81.7914 144.475 81.2196 145.07C80.7092 145.529 79.4842 145.621 77.0137 144.795C71.9094 143.061 71.0213 148.63 73.5122 149.711C71.2561 151.088 67.53 154.873 69.5411 158.198C71.5521 161.523 73.2774 165.919 72.1442 166.643C73.2161 167.062 75.0639 165.96 75.1455 162.268Z" fill="#263238"/>
<path d="M71.9502 160.86C71.9836 162.322 72.5625 163.719 73.5734 164.777C74.9107 166.133 76.4522 165.113 76.7993 163.308C77.1056 161.676 76.7993 159.014 75.0843 158.341C73.3692 157.667 71.94 159.034 71.9502 160.86Z" fill="#FBD0CD"/>
<path d="M84.7211 161.095C84.5782 161.605 84.7211 162.115 85.0682 162.186C85.4153 162.257 85.7828 161.962 85.9359 161.452C86.089 160.942 85.9359 160.432 85.5786 160.37C85.2213 160.309 84.864 160.585 84.7211 161.095Z" fill="#263238"/>
<path d="M90.4276 162.9C90.2847 163.41 90.4276 163.92 90.7747 163.981C91.1218 164.042 91.4893 163.757 91.6424 163.247C91.7955 162.737 91.6424 162.227 91.2851 162.166C90.9278 162.104 90.5807 162.421 90.4276 162.9Z" fill="#263238"/>
<path d="M88.5391 162.604C88.7031 164.348 89.0943 166.062 89.7029 167.704C89.2814 167.843 88.8349 167.888 88.3943 167.837C87.9536 167.786 87.5293 167.64 87.1508 167.408L88.5391 162.604Z" fill="#EBAEA8"/>
<path d="M83.4962 158.667C83.4446 158.657 83.3958 158.637 83.3532 158.606C83.2965 158.547 83.2648 158.468 83.2648 158.387C83.2648 158.305 83.2965 158.226 83.3532 158.167C83.7435 157.863 84.2018 157.657 84.689 157.568C85.1762 157.479 85.6776 157.51 86.1504 157.657C86.188 157.672 86.2223 157.694 86.2514 157.722C86.2805 157.75 86.3038 157.783 86.3199 157.82C86.3361 157.857 86.3447 157.897 86.3454 157.937C86.3461 157.978 86.3388 158.018 86.3239 158.055C86.3093 158.093 86.2873 158.127 86.2594 158.156C86.2314 158.185 86.198 158.208 86.161 158.224C86.124 158.241 86.0841 158.249 86.0438 158.25C86.0034 158.251 85.9633 158.243 85.9258 158.228C85.5589 158.113 85.1696 158.089 84.7911 158.156C84.4125 158.224 84.0558 158.381 83.7514 158.616C83.7163 158.645 83.6747 158.665 83.6302 158.674C83.5857 158.682 83.5396 158.68 83.4962 158.667Z" fill="#263238"/>
<path d="M93.4391 161.747C93.3935 161.725 93.3539 161.692 93.3237 161.651C93.2935 161.611 93.2735 161.563 93.2656 161.513C93.2112 161.119 93.0668 160.743 92.8438 160.414C92.6207 160.085 92.325 159.812 91.9793 159.616C91.9104 159.568 91.8632 159.495 91.8479 159.413C91.8326 159.331 91.8505 159.246 91.8976 159.177C91.9344 159.122 91.9881 159.08 92.0507 159.058C92.1133 159.036 92.1814 159.035 92.2447 159.055C92.6811 159.293 93.0553 159.63 93.3372 160.04C93.6191 160.449 93.8009 160.919 93.8679 161.411C93.8753 161.45 93.8748 161.491 93.8665 161.53C93.8582 161.57 93.8422 161.607 93.8194 161.64C93.7967 161.673 93.7676 161.702 93.7339 161.724C93.7001 161.745 93.6624 161.761 93.6229 161.768C93.5609 161.776 93.4978 161.769 93.4391 161.747Z" fill="#263238"/>
<path d="M84.272 169.142C84.5558 169.225 84.8461 169.283 85.1397 169.316C85.1843 169.325 85.2308 169.316 85.269 169.291C85.3072 169.267 85.3341 169.228 85.3439 169.183C85.3467 169.16 85.3446 169.136 85.3378 169.113C85.331 169.09 85.3196 169.069 85.3043 169.051C85.289 169.033 85.2701 169.018 85.2488 169.007C85.2275 168.997 85.2043 168.991 85.1805 168.989C84.4404 168.908 83.7296 168.655 83.1041 168.251C82.4786 167.848 81.9558 167.304 81.5769 166.664C81.5671 166.643 81.5532 166.624 81.536 166.609C81.5188 166.593 81.4986 166.581 81.4767 166.574C81.4549 166.566 81.4317 166.563 81.4086 166.564C81.3854 166.566 81.3628 166.572 81.3421 166.582C81.3201 166.591 81.3002 166.604 81.2838 166.621C81.2674 166.638 81.2549 166.658 81.2471 166.681C81.2393 166.703 81.2365 166.727 81.2388 166.75C81.2411 166.774 81.2485 166.796 81.2605 166.817C81.5809 167.386 82.0126 167.886 82.5299 168.285C83.0473 168.685 83.6397 168.976 84.272 169.142Z" fill="#F99893"/>
<path d="M74.3595 149.915C73.6439 149.738 72.9885 149.374 72.4609 148.859C71.9333 148.345 71.5527 147.699 71.3582 146.988C71.3144 146.854 71.2314 146.736 71.1198 146.65C71.0083 146.564 70.8734 146.513 70.7326 146.504C70.5918 146.495 70.4516 146.529 70.3302 146.601C70.2088 146.672 70.1117 146.779 70.0515 146.906C69.1838 148.753 68.7857 151.303 74.3595 149.915Z" fill="#2E353A"/>
<path d="M122.591 209.374C122.805 209.374 123.01 209.443 123.162 209.567C123.314 209.691 123.4 209.859 123.401 210.034V212.885C123.401 213.061 123.316 213.23 123.164 213.355C123.012 213.48 122.806 213.55 122.591 213.55H96.3449C96.2753 213.55 96.2084 213.528 96.1586 213.488C96.1089 213.448 96.0802 213.393 96.0787 213.336V209.564C96.0802 209.507 96.1089 209.452 96.1586 209.412C96.2084 209.372 96.2753 209.35 96.3449 209.35L122.591 209.374Z" fill="#0EBED9"/>
<path opacity="0.9" d="M107.166 209.35H96.0788V213.55H107.166C107.291 213.55 107.411 213.5 107.5 213.411C107.589 213.322 107.638 213.201 107.638 213.075V209.819C107.637 209.694 107.586 209.575 107.498 209.487C107.409 209.399 107.29 209.35 107.166 209.35Z" fill="white"/>
<path d="M109.507 209.35H136.246C136.697 209.35 137.063 209.647 137.063 210.014V212.886C137.063 213.253 136.697 213.55 136.246 213.55H109.507C109.055 213.55 108.689 213.253 108.689 212.886V210.014C108.689 209.647 109.055 209.35 109.507 209.35Z" fill="#0EBED9"/>
<path opacity="0.2" d="M109.507 209.35H136.246C136.697 209.35 137.063 209.647 137.063 210.014V212.886C137.063 213.253 136.697 213.55 136.246 213.55H109.507C109.055 213.55 108.689 213.253 108.689 212.886V210.014C108.689 209.647 109.055 209.35 109.507 209.35Z" fill="black"/>
<path opacity="0.5" d="M121.67 209.35H126.184C126.389 209.35 126.554 209.471 126.554 209.62V213.279C126.554 213.429 126.389 213.55 126.184 213.55H121.67C121.466 213.55 121.3 213.429 121.3 213.279V209.62C121.3 209.471 121.466 209.35 121.67 209.35Z" fill="#0EBED9"/>
<path opacity="0.5" d="M116.342 209.35H119.953C120.116 209.35 120.249 209.471 120.249 209.62V213.279C120.249 213.429 120.116 213.55 119.953 213.55H116.342C116.178 213.55 116.046 213.429 116.046 213.279V209.62C116.046 209.471 116.178 209.35 116.342 209.35Z" fill="#0EBED9"/>
<path d="M127.819 202.013C127.929 202.013 128.038 202.038 128.139 202.085C128.241 202.133 128.333 202.202 128.411 202.289C128.488 202.377 128.55 202.481 128.592 202.595C128.634 202.709 128.656 202.832 128.656 202.956V208.408C128.656 208.531 128.634 208.654 128.592 208.768C128.55 208.883 128.488 208.987 128.411 209.074C128.333 209.162 128.241 209.231 128.139 209.278C128.038 209.326 127.929 209.35 127.819 209.35H98.4494C98.3775 209.348 98.3091 209.315 98.2588 209.257C98.2085 209.199 98.1804 209.121 98.1804 209.04V202.31C98.1804 202.229 98.2085 202.151 98.2588 202.093C98.3091 202.035 98.3775 202.002 98.4494 202L127.819 202.013Z" fill="#0EBED9"/>
<path opacity="0.9" d="M111.372 203.05H98.1805V208.3H111.372C111.497 208.3 111.616 208.251 111.704 208.165C111.792 208.078 111.842 207.961 111.842 207.838V203.523C111.843 203.462 111.832 203.4 111.809 203.343C111.786 203.286 111.752 203.233 111.708 203.189C111.665 203.145 111.612 203.11 111.554 203.086C111.497 203.062 111.435 203.05 111.372 203.05Z" fill="white"/>
<path d="M113.747 202H137.259C137.731 202 138.114 202.423 138.114 202.945V208.405C138.114 208.927 137.731 209.35 137.259 209.35H113.747C113.275 209.35 112.893 208.927 112.893 208.405V202.945C112.893 202.423 113.275 202 113.747 202Z" fill="#0EBED9"/>
<path opacity="0.2" d="M113.747 202H137.259C137.731 202 138.114 202.423 138.114 202.945V208.405C138.114 208.927 137.731 209.35 137.259 209.35H113.747C113.275 209.35 112.893 208.927 112.893 208.405V202.945C112.893 202.423 113.275 202 113.747 202Z" fill="white"/>
<path opacity="0.6" d="M115.502 203.05H132.352C132.632 203.05 132.859 203.354 132.859 203.729V207.621C132.859 207.996 132.632 208.3 132.352 208.3H115.502C115.222 208.3 114.995 207.996 114.995 207.621V203.729C114.995 203.354 115.222 203.05 115.502 203.05Z" fill="#0EBED9"/>
<path d="M238.686 195.387C238.219 195.375 237.759 195.492 237.354 195.724C236.949 195.956 236.615 196.295 236.389 196.703C225.41 215.093 221.465 236.832 225.282 257.903C225.343 258.434 225.591 258.926 225.982 259.291C226.373 259.655 226.881 259.868 227.416 259.892C229.08 260.004 258.705 259.892 259.777 259.892C260.215 259.9 260.65 259.813 261.051 259.635C261.452 259.457 261.808 259.193 262.095 258.862C262.383 258.531 262.594 258.142 262.714 257.72C262.833 257.299 262.859 256.856 262.789 256.424C259.333 236.805 263.078 216.6 273.334 199.518C273.571 199.093 273.691 198.614 273.682 198.127C273.673 197.641 273.534 197.166 273.281 196.751C273.027 196.336 272.668 195.996 272.24 195.765C271.811 195.534 271.329 195.421 270.843 195.438C269.986 195.367 240.575 195.418 238.686 195.387Z" fill="#0EBED9"/>
<path opacity="0.2" d="M238.686 195.387C238.219 195.375 237.759 195.492 237.354 195.724C236.949 195.956 236.615 196.295 236.389 196.703C225.41 215.093 221.465 236.832 225.282 257.903C225.343 258.434 225.591 258.926 225.982 259.291C226.373 259.655 226.881 259.868 227.416 259.892C229.08 260.004 258.705 259.892 259.777 259.892C260.215 259.9 260.65 259.813 261.051 259.635C261.452 259.457 261.808 259.193 262.095 258.862C262.383 258.531 262.594 258.142 262.714 257.72C262.833 257.299 262.859 256.856 262.789 256.424C259.333 236.805 263.078 216.6 273.334 199.518C273.571 199.093 273.691 198.614 273.682 198.127C273.673 197.641 273.534 197.166 273.281 196.751C273.027 196.336 272.668 195.996 272.24 195.765C271.811 195.534 271.329 195.421 270.843 195.438C269.986 195.367 240.575 195.418 238.686 195.387Z" fill="black"/>
<path d="M262.789 256.404C259.333 236.785 263.078 216.58 273.334 199.498C275.182 196.438 270.384 193.653 268.546 196.703C257.57 215.094 253.628 236.833 257.45 257.903C258.082 261.402 263.422 259.943 262.789 256.434V256.404Z" fill="#0EBED9"/>
<g opacity="0.2">
<path opacity="0.2" d="M262.789 256.404C259.333 236.785 263.078 216.58 273.334 199.498C275.182 196.438 270.384 193.653 268.546 196.703C257.57 215.094 253.628 236.833 257.45 257.903C258.082 261.402 263.422 259.943 262.789 256.434V256.404Z" fill="white"/>
</g>
<path d="M244.628 333.24L218.902 323.774L192.891 333.25C192.682 333.325 192.458 333.349 192.238 333.32C192.018 333.291 191.809 333.209 191.627 333.082C191.445 332.956 191.296 332.787 191.193 332.591C191.089 332.395 191.034 332.177 191.033 331.955C191.033 331.692 191.11 331.435 191.253 331.214C191.396 330.993 191.599 330.818 191.839 330.71L218.902 318.164L245.689 330.7C245.924 330.813 246.122 330.99 246.261 331.21C246.4 331.43 246.474 331.684 246.475 331.945C246.476 332.166 246.422 332.384 246.32 332.58C246.218 332.777 246.07 332.946 245.889 333.073C245.708 333.2 245.498 333.281 245.279 333.31C245.059 333.34 244.836 333.315 244.628 333.24Z" fill="#263238"/>
<path opacity="0.3" d="M244.628 333.24L218.902 323.774L192.891 333.25C192.682 333.325 192.458 333.349 192.238 333.32C192.018 333.291 191.809 333.209 191.627 333.082C191.445 332.956 191.296 332.787 191.193 332.591C191.089 332.395 191.034 332.177 191.033 331.955C191.033 331.692 191.11 331.435 191.253 331.214C191.396 330.993 191.599 330.818 191.839 330.71L218.902 318.164L245.689 330.7C245.924 330.813 246.122 330.99 246.261 331.21C246.4 331.43 246.474 331.684 246.475 331.945C246.476 332.166 246.422 332.384 246.32 332.58C246.218 332.777 246.07 332.946 245.889 333.073C245.708 333.2 245.498 333.281 245.279 333.31C245.059 333.34 244.836 333.315 244.628 333.24Z" fill="white"/>
<path opacity="0.2" d="M212.838 326.018L218.902 323.815L224.68 325.937V320.908L218.902 318.195L212.838 321.01V326.018Z" fill="black"/>
<path d="M218.759 333.495C218.195 333.496 217.65 333.288 217.229 332.911C216.809 332.535 216.543 332.016 216.483 331.455L215.758 323.836V260.596H221.761V323.836L221.036 331.455C220.975 332.016 220.709 332.535 220.289 332.911C219.869 333.288 219.324 333.496 218.759 333.495Z" fill="#263238"/>
<path opacity="0.3" d="M218.759 333.495C218.195 333.496 217.65 333.288 217.229 332.911C216.809 332.535 216.543 332.016 216.483 331.455L215.758 323.836V260.596H221.761V323.836L221.036 331.455C220.975 332.016 220.709 332.535 220.289 332.911C219.869 333.288 219.324 333.496 218.759 333.495Z" fill="white"/>
<path opacity="0.2" d="M221.761 260.555H215.758V267.919H221.761V260.555Z" fill="black"/>
<path d="M171.341 254.792C178.134 253.073 185.099 252.115 192.105 251.936C199.312 251.762 226.303 251.936 232.714 251.936C240.529 251.931 248.313 252.901 255.888 254.822C260.645 256.036 259.175 262.901 254.867 262.982C254.489 262.982 172.902 262.982 172.606 262.982C168.115 263.146 166.481 256.036 171.341 254.792Z" fill="#0EBED9"/>
<path opacity="0.3" d="M171.341 254.792C178.134 253.073 185.099 252.115 192.105 251.936C199.312 251.762 226.303 251.936 232.714 251.936C240.529 251.931 248.313 252.901 255.888 254.822C260.645 256.036 259.175 262.901 254.867 262.982C254.489 262.982 172.902 262.982 172.606 262.982C168.115 263.146 166.481 256.036 171.341 254.792Z" fill="black"/>
<path d="M253.683 262.799C239.922 259.31 225.507 259.31 211.746 262.799C206.57 264.125 204.355 256.118 209.541 254.792C224.749 250.936 240.68 250.936 255.888 254.792C261.063 256.118 258.868 264.125 253.683 262.799Z" fill="#0EBED9"/>
<g opacity="0.3">
<path opacity="0.3" d="M253.683 262.799C239.922 259.31 225.507 259.31 211.746 262.799C206.57 264.125 204.355 256.118 209.541 254.792C224.749 250.936 240.68 250.936 255.888 254.792C261.063 256.118 258.868 264.125 253.683 262.799Z" fill="white"/>
</g>
<path d="M214.114 161.39C214.114 161.39 209.092 160.901 210.654 153.445C212.216 145.988 212.083 138.91 223.169 139.715C223.169 139.715 231.949 137.522 234.399 145.764C236.849 154.006 240.524 159.85 234.685 162.278C227.334 165.338 225.497 158.565 225.497 158.565L214.747 159.585L214.114 161.39Z" fill="#614A43"/>
<path d="M212.471 172.304C206.111 171.397 209.173 193.5 203.467 197.58C200.312 199.763 184.448 193.898 184.448 193.898L182.213 186.758C182.157 186.575 182.061 186.407 181.932 186.266C181.803 186.125 181.645 186.014 181.467 185.942L178.16 184.626C177.942 184.546 177.707 184.527 177.479 184.57C177.251 184.613 177.039 184.717 176.865 184.871C176.691 185.024 176.563 185.222 176.492 185.443C176.422 185.664 176.412 185.9 176.465 186.125L177.66 191.399C177.71 191.629 177.823 191.841 177.986 192.011L182.59 196.897C182.59 196.897 201.507 206.077 206.07 204.536C211.419 202.772 213.4 193.041 214.727 187.247C215.768 182.861 217.34 172.998 212.471 172.304Z" fill="#FFC3BD"/>
<path d="M205.08 304.751L207.009 319.654L201.578 319.796L197.668 305.414L205.08 304.751Z" fill="#FFC3BD"/>
<path d="M201.507 318.96H207.703C207.833 318.963 207.958 319.008 208.06 319.09C208.161 319.171 208.233 319.283 208.265 319.409L209.531 325.202C209.559 325.324 209.563 325.449 209.543 325.572C209.522 325.695 209.477 325.813 209.411 325.918C209.344 326.024 209.257 326.115 209.155 326.186C209.053 326.258 208.938 326.308 208.816 326.335C208.748 326.345 208.679 326.345 208.612 326.335C206.049 326.335 203.773 326.131 200.578 326.131C196.811 326.131 197.76 326.579 193.33 326.63C190.665 326.63 190.185 323.621 191.288 323.479C196.474 322.836 197.944 321.275 199.945 319.399C200.392 319.062 200.949 318.906 201.507 318.96Z" fill="#263238"/>
<path opacity="0.1" d="M199.935 313.758L197.668 305.414L205.08 304.751L206.192 313.36L199.935 313.758Z" fill="black"/>
<path d="M223.772 215.287H215.003C213.555 219.231 212.625 223.345 212.236 227.527C211.777 233.749 223.772 229.139 223.772 229.139L224.793 220.612L223.772 215.287Z" fill="#263238"/>
<path d="M167.921 284.107L162.143 300.947L157.294 299.56L161.224 281.801L167.921 284.107Z" fill="#FFC3BD"/>
<path d="M157.385 298.264L163.347 300.07C163.473 300.102 163.584 300.176 163.662 300.28C163.74 300.384 163.78 300.511 163.776 300.641L163.551 306.557C163.549 306.686 163.52 306.813 163.467 306.931C163.414 307.048 163.337 307.154 163.241 307.241C163.146 307.328 163.033 307.394 162.911 307.436C162.789 307.478 162.659 307.495 162.531 307.485C162.466 307.495 162.401 307.495 162.337 307.485C159.866 306.791 157.692 306.088 154.598 305.282C150.954 304.333 151.761 305.006 147.453 303.946C144.86 303.313 145.156 300.253 146.289 300.396C151.464 301.069 153.302 299.692 155.701 298.407C156.224 298.149 156.826 298.098 157.385 298.264Z" fill="#263238"/>
<path opacity="0.1" d="M164.766 293.287L159.009 291.808L161.224 281.801L167.921 284.107L164.766 293.287Z" fill="black"/>
<path d="M241.249 214.492C241.249 214.492 250.171 229.404 248.629 241.858C247.088 254.313 235.562 260.902 191.247 239.686C191.247 239.686 182.151 249.09 167.073 289.37L159.376 287.065C159.376 287.065 168.074 240.502 175.843 227.252C183.611 214.002 218.157 229.557 220.76 226.946C223.088 224.62 221.066 215.42 221.066 215.42L241.249 214.492Z" fill="#263238"/>
<path d="M168.952 288.605L167.339 291.716L158.11 288.605V285.035L168.952 288.605Z" fill="#0EBED9"/>
<path d="M244.842 174.63L213.441 172.284C212.993 172.247 212.543 172.31 212.122 172.466C211.701 172.623 211.32 172.87 211.005 173.19C210.69 173.51 210.45 173.896 210.301 174.319C210.152 174.742 210.098 175.193 210.143 175.64C210.445 177.379 210.623 179.138 210.674 180.903C210.398 184.228 208.632 189.206 209.204 191.48C209.684 193.296 211.593 195.356 212.348 197.407C213.992 201.844 214.267 216.215 214.267 216.215C224.415 217.858 242.474 215.42 242.474 215.42C238.39 200.824 244.515 183.8 246.343 176.721C246.403 176.483 246.41 176.236 246.365 175.995C246.319 175.754 246.222 175.526 246.079 175.327C245.936 175.128 245.751 174.962 245.537 174.842C245.324 174.722 245.086 174.649 244.842 174.63Z" fill="#0EBED9"/>
<path opacity="0.7" d="M244.842 174.63L213.441 172.284C212.993 172.247 212.543 172.31 212.122 172.466C211.701 172.623 211.32 172.87 211.005 173.19C210.69 173.51 210.45 173.896 210.301 174.319C210.152 174.742 210.098 175.193 210.143 175.64C210.445 177.379 210.623 179.138 210.674 180.903C210.398 184.228 208.632 189.206 209.204 191.48C209.684 193.296 211.593 195.356 212.348 197.407C213.992 201.844 214.267 216.215 214.267 216.215C224.415 217.858 242.474 215.42 242.474 215.42C238.39 200.824 244.515 183.8 246.343 176.721C246.403 176.483 246.41 176.236 246.365 175.995C246.319 175.754 246.222 175.526 246.079 175.327C245.936 175.128 245.751 174.962 245.537 174.842C245.324 174.722 245.086 174.649 244.842 174.63Z" fill="white"/>
<path opacity="0.1" d="M240.166 191.868L229.315 202.966L213.849 206.077H213.747C213.89 207.78 213.992 209.494 214.073 211.003C218.351 211.003 232.326 210.707 236.359 207.199C238.396 205.252 240.061 202.95 241.269 200.405C241.461 197.915 241.785 195.436 242.239 192.98L240.166 191.868Z" fill="black"/>
<path opacity="0.2" d="M186.184 243.868L183.764 241.991C183.764 241.991 175.22 246.611 179.467 259.769C181.737 254.948 184.255 250.246 187.011 245.683L186.184 243.868Z" fill="black"/>
<path d="M223.2 251.936C215.145 250.008 204.722 246.142 191.247 239.696C191.247 239.696 180.845 239.839 180.151 247.56C179.456 255.281 197.699 308.76 197.699 308.76L206.121 308.036C206.121 308.036 201.16 254.751 199.996 251.987L223.2 251.936Z" fill="#263238"/>
<path opacity="0.2" d="M191.247 239.686C190.042 239.732 188.844 239.903 187.674 240.196C193.325 245.019 199.663 248.976 206.478 251.936H223.2C215.145 250.008 204.723 246.142 191.247 239.686Z" fill="black"/>
<path d="M207.132 306.598L207.356 310.055L197.546 310.82L196.158 307.536L207.132 306.598Z" fill="#0EBED9"/>
<path d="M230.019 160.024L223.169 166.745C224.313 172.274 220.26 172.794 220.26 172.794C220.26 172.794 220.587 174.742 225.548 174.477C227.769 174.453 229.98 174.186 232.143 173.681C229.152 171.295 229.591 164.022 230.019 160.024Z" fill="#FFC3BD"/>
<path opacity="0.1" d="M223.231 169.867C223.433 168.834 223.412 167.77 223.169 166.745L229.294 160.748L229.887 161.441C229.887 161.441 228.651 169.091 223.231 169.867Z" fill="black"/>
<path d="M230.611 151.119C231.111 157.708 231.469 160.493 228.631 164.297C224.353 170.04 216.146 169.214 213.675 162.9C211.46 157.219 211.011 147.396 217.054 143.908C218.384 143.135 219.889 142.715 221.427 142.686C222.964 142.657 224.484 143.021 225.842 143.743C227.199 144.465 228.35 145.522 229.185 146.812C230.019 148.103 230.51 149.586 230.611 151.119Z" fill="#FFC3BD"/>
<path d="M217.126 157.8C216.82 159.084 216.339 160.319 215.697 161.472C215.996 161.628 216.325 161.716 216.661 161.732C216.998 161.748 217.334 161.691 217.646 161.564L217.126 157.8Z" fill="#EBAEA8"/>
<path d="M222.118 153.281C222.161 153.268 222.199 153.243 222.23 153.21C222.255 153.186 222.274 153.158 222.288 153.126C222.301 153.095 222.308 153.061 222.308 153.026C222.308 152.992 222.301 152.958 222.288 152.927C222.274 152.895 222.255 152.867 222.23 152.843C221.86 152.518 221.417 152.288 220.939 152.171C220.461 152.053 219.962 152.053 219.484 152.17C219.418 152.189 219.362 152.233 219.328 152.293C219.295 152.354 219.286 152.425 219.305 152.491C219.324 152.557 219.369 152.613 219.429 152.647C219.489 152.68 219.561 152.688 219.627 152.669C220.024 152.58 220.436 152.587 220.83 152.688C221.224 152.789 221.588 152.982 221.893 153.251C221.926 153.273 221.963 153.287 222.002 153.292C222.041 153.298 222.081 153.294 222.118 153.281Z" fill="#2E353A"/>
<path d="M212.369 154.189C212.412 154.175 212.45 154.151 212.481 154.118C212.743 153.811 213.073 153.569 213.446 153.413C213.818 153.257 214.222 153.191 214.625 153.22C214.693 153.227 214.762 153.209 214.818 153.17C214.874 153.131 214.914 153.073 214.931 153.006C214.937 152.936 214.916 152.867 214.872 152.812C214.829 152.757 214.766 152.72 214.696 152.71C214.207 152.666 213.713 152.74 213.259 152.927C212.804 153.113 212.4 153.406 212.083 153.781C212.058 153.805 212.039 153.834 212.025 153.865C212.012 153.897 212.005 153.931 212.005 153.965C212.005 153.999 212.012 154.033 212.025 154.065C212.039 154.096 212.058 154.125 212.083 154.148C212.12 154.184 212.167 154.207 212.218 154.216C212.269 154.226 212.321 154.22 212.369 154.199V154.189Z" fill="#2E353A"/>
<path d="M220.76 156.382C220.842 156.913 220.617 157.402 220.26 157.402C219.902 157.402 219.576 157.066 219.504 156.525C219.433 155.984 219.657 155.505 220.005 155.505C220.352 155.505 220.689 155.852 220.76 156.382Z" fill="#2E353A"/>
<path d="M214.737 157.219C214.819 157.749 214.594 158.239 214.247 158.239C213.9 158.239 213.563 157.892 213.481 157.361C213.4 156.831 213.634 156.341 213.982 156.341C214.329 156.341 214.676 156.678 214.737 157.219Z" fill="#2E353A"/>
<path d="M214.135 156.352L212.808 156.158C212.808 156.158 213.604 157.066 214.135 156.352Z" fill="#2E353A"/>
<path d="M220.158 155.515L218.831 155.332C218.831 155.332 219.627 156.229 220.158 155.515Z" fill="#2E353A"/>
<path d="M221.189 161.778C221.294 161.592 221.382 161.398 221.454 161.197C221.461 161.182 221.465 161.166 221.465 161.15C221.466 161.134 221.463 161.118 221.458 161.102C221.452 161.087 221.443 161.073 221.432 161.061C221.421 161.05 221.408 161.04 221.393 161.034C221.377 161.027 221.36 161.024 221.343 161.025C221.325 161.026 221.308 161.03 221.293 161.038C221.278 161.046 221.264 161.056 221.253 161.07C221.242 161.083 221.234 161.099 221.23 161.115C221.047 161.627 220.746 162.089 220.353 162.465C219.959 162.84 219.484 163.118 218.963 163.277C218.93 163.285 218.9 163.305 218.881 163.333C218.862 163.362 218.855 163.397 218.861 163.431C218.865 163.447 218.872 163.462 218.881 163.476C218.891 163.489 218.904 163.501 218.918 163.509C218.932 163.518 218.948 163.524 218.965 163.526C218.981 163.528 218.998 163.527 219.014 163.522C219.475 163.392 219.905 163.17 220.278 162.87C220.652 162.571 220.961 162.199 221.189 161.778Z" fill="#F99893"/>
<path d="M225.507 141.48C221.271 140.46 216.881 142.643 216.881 142.643C216.881 142.643 211.981 146.998 213.104 151.211C213.622 150.829 214.207 150.549 214.829 150.385C214.658 148.788 215.104 147.186 216.074 145.907C215.812 147.295 215.868 148.725 216.238 150.089C218.284 149.887 220.349 150.13 222.291 150.803C222.291 150.803 223.139 149.059 222.291 145.274C223.398 147.247 223.981 149.47 223.986 151.731C224.037 155.648 229.09 156.596 229.09 156.596C229.09 156.596 232.245 156.26 232.214 152.037C232.184 147.814 229.744 142.571 225.507 141.48Z" fill="#614A43"/>
<path d="M223.639 141.266C223.639 141.266 221.597 136.309 217.647 137.522C213.696 138.736 220.638 138.726 223.639 141.266Z" fill="#614A43"/>
<path d="M232.857 156.076C232.76 156.702 232.541 157.302 232.212 157.843C231.882 158.384 231.45 158.855 230.938 159.228C229.56 160.248 228.294 159.126 228.182 157.525C228.09 156.086 228.692 153.832 230.315 153.445C230.669 153.378 231.034 153.4 231.377 153.508C231.721 153.616 232.032 153.807 232.284 154.065C232.535 154.322 232.719 154.638 232.819 154.983C232.919 155.329 232.932 155.694 232.857 156.046V156.076Z" fill="#FFC3BD"/>
<path d="M245.24 174.487C242.116 173.467 237.839 185.371 236.052 189.083C235.317 190.624 234.133 194.071 233.235 196.795C232.862 197.959 232.208 199.014 231.33 199.866C230.452 200.719 229.378 201.342 228.202 201.68L211.47 206.423L204.671 204.383C204.42 204.307 204.154 204.288 203.894 204.329C203.634 204.37 203.387 204.468 203.171 204.618L199.751 206.944C199.501 207.115 199.297 207.345 199.156 207.614C199.016 207.882 198.943 208.181 198.944 208.484C198.94 208.735 198.987 208.985 199.084 209.218C199.181 209.45 199.325 209.66 199.508 209.833C199.69 210.007 199.907 210.141 200.144 210.226C200.381 210.312 200.633 210.347 200.884 210.33L210.99 209.534C210.99 209.534 227.324 210.483 234.47 206.474C241.616 202.466 250.661 176.344 245.24 174.487Z" fill="#FFC3BD"/>
<path d="M232.214 210.371H174.23C173.81 210.371 173.408 210.537 173.111 210.834C172.814 211.13 172.647 211.533 172.647 211.952C172.647 212.371 172.814 212.773 173.111 213.07C173.408 213.366 173.81 213.533 174.23 213.533H232.214C232.634 213.533 233.036 213.366 233.333 213.07C233.63 212.773 233.796 212.371 233.796 211.952C233.796 211.533 233.63 211.13 233.333 210.834C233.036 210.537 232.634 210.371 232.214 210.371Z" fill="#263238"/>
<path opacity="0.3" d="M232.214 210.371H174.23C173.81 210.371 173.408 210.537 173.111 210.834C172.814 211.13 172.647 211.533 172.647 211.952C172.647 212.371 172.814 212.773 173.111 213.07C173.408 213.366 173.81 213.533 174.23 213.533H232.214C232.634 213.533 233.036 213.366 233.333 213.07C233.63 212.773 233.796 212.371 233.796 211.952C233.796 211.533 233.63 211.13 233.333 210.834C233.036 210.537 232.634 210.371 232.214 210.371Z" fill="white"/>
<path d="M175.087 212.564H194.881C195.004 212.566 195.125 212.537 195.235 212.481C195.344 212.425 195.437 212.343 195.507 212.242C195.577 212.141 195.62 212.025 195.634 211.903C195.648 211.781 195.631 211.658 195.586 211.544L184.744 180.546C184.598 180.123 184.322 179.758 183.955 179.501C183.589 179.245 183.15 179.111 182.703 179.118H162.908C162.786 179.118 162.667 179.148 162.559 179.205C162.451 179.262 162.359 179.344 162.289 179.444C162.22 179.544 162.176 179.66 162.161 179.781C162.147 179.901 162.161 180.024 162.204 180.138L173.076 211.166C173.226 211.578 173.499 211.934 173.86 212.184C174.22 212.434 174.648 212.567 175.087 212.564Z" fill="#263238"/>
<path opacity="0.5" d="M175.087 212.564H194.881C195.004 212.566 195.125 212.537 195.235 212.481C195.344 212.425 195.437 212.343 195.507 212.242C195.577 212.141 195.62 212.025 195.634 211.903C195.648 211.781 195.631 211.658 195.586 211.544L184.744 180.546C184.598 180.123 184.322 179.758 183.955 179.501C183.589 179.245 183.15 179.111 182.703 179.118H162.908C162.786 179.118 162.667 179.148 162.559 179.205C162.451 179.262 162.359 179.344 162.289 179.444C162.22 179.544 162.176 179.66 162.161 179.781C162.147 179.901 162.161 180.024 162.204 180.138L173.076 211.166C173.226 211.578 173.499 211.934 173.86 212.184C174.22 212.434 174.648 212.567 175.087 212.564Z" fill="white"/>
<path d="M174.128 212.564H193.952C194.075 212.566 194.196 212.537 194.306 212.481C194.415 212.425 194.508 212.343 194.578 212.242C194.648 212.141 194.691 212.025 194.705 211.903C194.719 211.781 194.702 211.658 194.657 211.544L183.795 180.546C183.646 180.125 183.369 179.761 183.003 179.505C182.637 179.249 182.2 179.114 181.753 179.118H161.959C161.836 179.117 161.715 179.146 161.606 179.202C161.497 179.258 161.403 179.34 161.333 179.44C161.262 179.54 161.218 179.656 161.202 179.778C161.187 179.9 161.201 180.023 161.244 180.138L172.116 211.146C172.264 211.561 172.537 211.92 172.897 212.174C173.257 212.428 173.687 212.564 174.128 212.564Z" fill="#263238"/>
<path d="M178.443 197.978C179.141 197.738 179.381 196.598 178.98 195.431C178.578 194.265 177.686 193.514 176.988 193.754C176.289 193.994 176.049 195.134 176.451 196.301C176.852 197.467 177.744 198.218 178.443 197.978Z" fill="white"/>
<path opacity="0.2" d="M197.454 213.533C197.034 213.533 196.632 213.366 196.335 213.07C196.038 212.773 195.872 212.371 195.872 211.952C195.872 211.533 196.038 211.13 196.335 210.834C196.632 210.537 197.034 210.371 197.454 210.371H232.163C232.583 210.371 232.985 210.537 233.282 210.834C233.579 211.13 233.745 211.533 233.745 211.952C233.745 212.371 233.579 212.773 233.282 213.07C232.985 213.366 232.583 213.533 232.163 213.533H197.454Z" fill="white"/>
<path d="M370.121 333.24C370.401 333.234 370.677 333.171 370.933 333.056C371.188 332.941 371.418 332.776 371.609 332.57C371.799 332.365 371.946 332.123 372.041 331.86C372.137 331.596 372.178 331.316 372.163 331.037L366.487 220.357H360.484L367.998 331.292C368.021 331.831 368.258 332.339 368.656 332.704C369.054 333.069 369.581 333.262 370.121 333.24Z" fill="#263238"/>
<path opacity="0.5" d="M370.121 333.24C370.401 333.234 370.677 333.171 370.933 333.056C371.188 332.941 371.418 332.776 371.609 332.57C371.799 332.365 371.946 332.123 372.041 331.86C372.137 331.596 372.178 331.316 372.163 331.037L366.487 220.357H360.484L367.998 331.292C368.021 331.831 368.258 332.339 368.656 332.704C369.054 333.069 369.581 333.262 370.121 333.24Z" fill="white"/>
<path opacity="0.2" d="M366.528 220.397H360.525L361.025 227.772H366.905L366.528 220.397Z" fill="black"/>
<path d="M286.217 333.24C285.937 333.234 285.661 333.171 285.405 333.056C285.15 332.941 284.92 332.776 284.729 332.57C284.539 332.365 284.392 332.123 284.297 331.86C284.201 331.596 284.16 331.316 284.175 331.037L289.821 220.397H295.823L288.32 331.333C288.274 331.856 288.032 332.344 287.642 332.697C287.252 333.051 286.743 333.245 286.217 333.24Z" fill="#263238"/>
<path opacity="0.5" d="M286.217 333.24C285.937 333.234 285.661 333.171 285.405 333.056C285.15 332.941 284.92 332.776 284.729 332.57C284.539 332.365 284.392 332.123 284.297 331.86C284.201 331.596 284.16 331.316 284.175 331.037L289.821 220.397H295.823L288.32 331.333C288.274 331.856 288.032 332.344 287.642 332.697C287.252 333.051 286.743 333.245 286.217 333.24Z" fill="white"/>
<path opacity="0.2" d="M289.433 227.772H295.313L295.813 220.397H289.81L289.433 227.772Z" fill="black"/>
<path d="M152.638 333.24C152.919 333.233 153.195 333.171 153.45 333.056C153.706 332.941 153.936 332.776 154.126 332.57C154.316 332.365 154.464 332.123 154.559 331.86C154.654 331.596 154.695 331.316 154.68 331.037L149.045 220.397H143.042L150.546 331.333C150.592 331.855 150.832 332.34 151.22 332.694C151.608 333.047 152.114 333.242 152.638 333.24Z" fill="#263238"/>
<path opacity="0.5" d="M152.638 333.24C152.919 333.233 153.195 333.171 153.45 333.056C153.706 332.941 153.936 332.776 154.126 332.57C154.316 332.365 154.464 332.123 154.559 331.86C154.654 331.596 154.695 331.316 154.68 331.037L149.045 220.397H143.042L150.546 331.333C150.592 331.855 150.832 332.34 151.22 332.694C151.608 333.047 152.114 333.242 152.638 333.24Z" fill="white"/>
<path opacity="0.2" d="M149.045 220.397H143.042L143.543 227.772H149.423L149.045 220.397Z" fill="black"/>
<path d="M68.7344 333.24C68.4542 333.234 68.1782 333.171 67.9226 333.056C67.6671 332.941 67.4373 332.776 67.2469 332.57C67.0564 332.365 66.9093 332.123 66.8141 331.86C66.7189 331.596 66.6776 331.316 66.6927 331.037L72.3789 220.397H78.3815L70.868 331.333C70.8338 331.867 70.591 332.366 70.1919 332.723C69.7928 333.079 69.2694 333.265 68.7344 333.24Z" fill="#263238"/>
<path opacity="0.5" d="M68.7344 333.24C68.4542 333.234 68.1782 333.171 67.9226 333.056C67.6671 332.941 67.4373 332.776 67.2469 332.57C67.0564 332.365 66.9093 332.123 66.8141 331.86C66.7189 331.596 66.6776 331.316 66.6927 331.037L72.3789 220.397H78.3815L70.868 331.333C70.8338 331.867 70.591 332.366 70.1919 332.723C69.7928 333.079 69.2694 333.265 68.7344 333.24Z" fill="white"/>
<path opacity="0.2" d="M71.9501 227.772H77.8302L78.3304 220.397H72.3278L71.9501 227.772Z" fill="black"/>
<path d="M371.356 216.889H66.5397V220.397H371.356V216.889Z" fill="#263238"/>
<path opacity="0.3" d="M371.356 216.889H66.5397V220.397H371.356V216.889Z" fill="white"/>
<path opacity="0.2" d="M371.356 216.889H284.022V220.397H371.356V216.889Z" fill="black"/>
<path d="M379.207 213.38H58.6892V216.889H379.207V213.38Z" fill="#A3ABAF"/>
<path opacity="0.3" d="M379.207 213.38H276.172V216.889H379.207V213.38Z" fill="black"/>
<path d="M299.688 210H271.793C271.644 210 271.5 210.176 271.394 210.489C271.288 210.802 271.227 211.228 271.225 211.673C271.227 212.119 271.288 212.544 271.394 212.857C271.5 213.171 271.644 213.346 271.793 213.346H299.688C299.837 213.346 299.98 213.17 300.085 212.856C300.19 212.542 300.249 212.117 300.249 211.673C300.249 211.229 300.19 210.804 300.085 210.49C299.98 210.176 299.837 210 299.688 210Z" fill="#FFA945"/>
<path opacity="0.6" d="M274.853 211H295.62C295.966 211 296.246 211.093 296.246 211.207V212.393C296.246 212.507 295.966 212.6 295.62 212.6H274.853C274.508 212.6 274.228 212.507 274.228 212.393V211.207C274.228 211.093 274.508 211 274.853 211Z" fill="#D28E35"/>
<path d="M332.533 143.224C332.533 143.224 326.49 144.377 326.592 140.695C326.694 137.012 332.931 138.726 332.931 138.726L332.533 143.224Z" fill="#1A2E35"/>
<path opacity="0.4" d="M332.533 143.224C332.533 143.224 326.49 144.377 326.592 140.695C326.694 137.012 332.931 138.726 332.931 138.726L332.533 143.224Z" fill="black"/>
<path d="M328.756 152.037L325.99 156.382C326.498 156.704 327.076 156.902 327.675 156.961C328.274 157.019 328.879 156.936 329.44 156.719L328.756 152.037Z" fill="#FFC3BD"/>
<path d="M327.082 151.435C327.082 151.996 327.368 152.455 327.735 152.455C328.103 152.455 328.429 151.986 328.419 151.435C328.409 150.884 328.144 150.415 327.766 150.415C327.388 150.415 327.102 150.874 327.082 151.435Z" fill="#1A2E35"/>
<path d="M348.714 147.937C348.959 155.383 349.224 158.534 345.845 162.686C340.496 167.092 331.553 167.612 329.073 160.391C326.857 153.883 326.827 142.826 333.799 139.154C335.335 138.356 337.049 137.962 338.779 138.008C340.51 138.053 342.2 138.538 343.692 139.416C345.183 140.295 346.427 141.537 347.305 143.028C348.184 144.518 348.668 146.207 348.714 147.937Z" fill="#EBAEA8"/>
<path opacity="0.2" d="M338.25 165.858L338.199 165.491C338.17 165.301 338.101 165.12 337.997 164.959C337.893 164.797 337.756 164.66 337.595 164.555C337.434 164.45 337.253 164.38 337.063 164.35C336.874 164.32 336.68 164.33 336.494 164.379L333.432 165.205C334.958 165.82 336.615 166.045 338.25 165.858Z" fill="black"/>
<path d="M329.103 148.895C329.054 148.902 329.004 148.896 328.958 148.878C328.911 148.861 328.87 148.831 328.838 148.793C328.61 148.51 328.319 148.284 327.987 148.135C327.655 147.986 327.292 147.918 326.929 147.937C326.852 147.943 326.776 147.92 326.716 147.873C326.655 147.826 326.615 147.757 326.602 147.682C326.597 147.643 326.599 147.604 326.609 147.567C326.618 147.529 326.636 147.494 326.66 147.464C326.684 147.433 326.713 147.408 326.747 147.389C326.781 147.371 326.819 147.359 326.857 147.355C327.315 147.314 327.775 147.386 328.199 147.564C328.622 147.742 328.996 148.02 329.287 148.375C329.343 148.431 329.374 148.506 329.374 148.584C329.374 148.663 329.343 148.738 329.287 148.793C329.265 148.823 329.238 148.847 329.206 148.864C329.174 148.882 329.139 148.892 329.103 148.895Z" fill="#1A2E35"/>
<path d="M337.974 163.981L339.608 175.028L348.847 173.12L345.886 161.809L337.974 163.981Z" fill="#EBAEA8"/>
<path d="M334.259 153.261L332.697 154.505C332.033 151.675 332.239 148.71 333.289 145.999L331.431 143.173L331.717 141.266C331.717 141.266 328.828 136.594 331.084 135.207C333.34 133.82 334.779 136.706 334.779 136.706C334.779 136.706 336.331 132.096 339.046 132.728C341.762 133.361 340.374 136.247 340.374 136.247C340.374 136.247 344.763 133.075 346.836 134.636C348.908 136.196 346.315 138.379 346.315 138.379C346.315 138.379 351.572 138.502 351.746 140.572C351.919 142.643 349.602 142.826 349.602 142.826C349.602 142.826 353.073 144.03 353.012 145.886C352.95 147.743 350.245 147.845 350.245 147.845C350.245 147.845 353.767 150.089 353.012 152.047C352.824 152.58 352.434 153.019 351.927 153.269C351.419 153.518 350.834 153.56 350.296 153.383C350.296 153.383 352.124 155.719 351.511 156.984C351.297 157.357 350.98 157.66 350.598 157.857C350.216 158.054 349.785 158.137 349.357 158.096L346.356 163.42C345.562 163.152 344.713 163.096 343.891 163.257C343.069 163.418 342.303 163.791 341.67 164.338L336.28 155.485L334.259 153.261Z" fill="#1A2E35"/>
<path d="M333.329 151.252C333.197 151.995 333.213 152.756 333.376 153.493C333.539 154.23 333.846 154.928 334.279 155.546C335.443 157.188 337.341 156.454 338.056 154.699C338.73 153.108 338.924 150.344 337.229 149.324C336.857 149.103 336.436 148.979 336.004 148.962C335.572 148.946 335.143 149.038 334.755 149.229C334.368 149.421 334.034 149.706 333.785 150.059C333.536 150.413 333.38 150.822 333.329 151.252Z" fill="#EBAEA8"/>
<path d="M350.715 171.917L348.887 166.756C346.55 165.883 344.031 165.612 341.562 165.968C339.092 166.325 336.753 167.297 334.759 168.796L339.945 171.856L350.715 171.917Z" fill="#263238"/>
<path opacity="0.2" d="M349.867 169.54C345.694 168.562 341.324 168.842 337.311 170.346L339.945 171.917H350.715L349.867 169.54Z" fill="black"/>
<path d="M318.405 205.934L311.586 202.517C311.388 202.429 311.174 202.383 310.958 202.383C310.741 202.383 310.527 202.429 310.33 202.517L304.756 204.72C304.484 204.825 304.248 205.006 304.076 205.241C303.904 205.476 303.804 205.755 303.786 206.046L303.684 207.862C303.67 208.114 303.719 208.365 303.825 208.594C303.932 208.823 304.093 209.023 304.294 209.175C304.496 209.327 304.732 209.427 304.982 209.467C305.231 209.507 305.487 209.484 305.726 209.402L307.767 208.688C311.058 210.015 314.715 210.124 318.078 208.994L318.405 205.934Z" fill="#EBAEA8"/>
<path d="M292.506 206.332L285.737 202.874C285.543 202.778 285.331 202.723 285.115 202.715C284.899 202.706 284.683 202.743 284.482 202.823L278.898 205.077C278.626 205.187 278.392 205.372 278.222 205.611C278.052 205.849 277.953 206.131 277.938 206.423L277.836 208.259C277.82 208.512 277.867 208.765 277.973 208.996C278.079 209.226 278.24 209.427 278.442 209.58C278.644 209.734 278.88 209.835 279.131 209.875C279.381 209.915 279.638 209.893 279.878 209.81L281.919 209.096C285.207 210.435 288.868 210.544 292.23 209.402L292.506 206.332Z" fill="#EBAEA8"/>
<path d="M354.451 173.865C351.113 176.701 342.762 185.024 331.921 204.516H318.068C318.068 204.516 316.108 206.107 316.914 210.116C316.914 210.116 331.124 215.165 334.983 213.441C338.842 211.717 351.317 192.613 356.911 185.809C358.851 183.453 362.189 180.301 357.371 174.171C357.202 173.955 356.991 173.776 356.752 173.643C356.512 173.511 356.248 173.428 355.976 173.399C355.703 173.371 355.428 173.397 355.166 173.477C354.904 173.557 354.661 173.689 354.451 173.865Z" fill="#263238"/>
<path opacity="0.2" d="M338.975 201.211L335.647 198.08C334.442 200.12 333.197 202.211 331.921 204.516H328.613L330.716 213.696C332.153 213.966 333.633 213.889 335.034 213.472C336.055 213.013 337.658 211.36 339.577 209.045L338.975 201.211Z" fill="black"/>
<path d="M336.464 307.046L339.628 322.367L345.866 321.439L344.365 306.526L336.464 307.046Z" fill="#EBAEA8"/>
<path opacity="0.2" d="M345.355 316.359L344.365 306.526L336.464 307.046L338.444 316.624L345.355 316.359Z" fill="black"/>
<path d="M373.531 236.411C373.531 236.411 376.695 253.017 365.854 253.017C355.013 253.017 340.567 256.567 340.567 256.567C340.567 256.567 344.722 260.504 345.672 310.759L336.668 311.147C336.668 311.147 321.712 254.425 324.663 248.192C328.817 239.41 350.337 236.411 350.337 236.411H373.531Z" fill="#6FA926"/>
<path d="M335.626 309.372L346.029 309.066L346.56 314.135L336.29 314.584L335.626 309.372Z" fill="#6FA926"/>
<path opacity="0.5" d="M335.626 309.372L346.029 309.066L346.56 314.135L336.29 314.584L335.626 309.372Z" fill="white"/>
<path d="M336.78 323.326C336.11 323.485 335.404 323.39 334.8 323.06C334.721 322.97 334.673 322.858 334.662 322.739C334.651 322.62 334.678 322.5 334.738 322.397C334.779 322.301 334.839 322.215 334.915 322.143C334.99 322.071 335.079 322.015 335.177 321.979C336.198 321.551 338.648 322.571 338.76 322.612C338.789 322.625 338.813 322.647 338.829 322.674C338.845 322.702 338.853 322.733 338.852 322.765C338.848 322.796 338.835 322.826 338.815 322.851C338.795 322.876 338.769 322.895 338.74 322.907C338.1 323.102 337.444 323.242 336.78 323.326ZM335.586 322.193C335.487 322.203 335.391 322.227 335.3 322.265C335.238 322.285 335.182 322.318 335.134 322.362C335.086 322.406 335.049 322.46 335.024 322.52C334.932 322.724 335.024 322.805 335.024 322.856C335.371 323.244 337.015 323.05 338.209 322.765C337.391 322.415 336.515 322.221 335.626 322.193H335.586Z" fill="#0EBED9"/>
<path d="M338.76 322.907H338.689C337.872 322.663 336.147 321.439 336.198 320.694C336.198 320.51 336.3 320.286 336.719 320.184C337.025 320.119 337.344 320.178 337.607 320.347C338.283 320.99 338.74 321.828 338.913 322.744C338.925 322.766 338.931 322.791 338.931 322.816C338.931 322.84 338.925 322.865 338.913 322.887C338.894 322.907 338.868 322.921 338.841 322.924C338.813 322.928 338.784 322.922 338.76 322.907ZM336.851 320.47H336.78C336.514 320.531 336.504 320.643 336.494 320.684C336.494 321.122 337.668 322.102 338.536 322.489C338.369 321.76 337.981 321.101 337.423 320.602C337.263 320.489 337.066 320.442 336.872 320.47H336.851Z" fill="#0EBED9"/>
<path d="M339.332 321.918L346.478 321.071C346.608 321.055 346.74 321.083 346.851 321.152C346.963 321.22 347.047 321.325 347.091 321.449L349.061 327.059C349.105 327.177 349.125 327.302 349.12 327.427C349.114 327.553 349.084 327.676 349.031 327.79C348.978 327.904 348.903 328.006 348.81 328.091C348.717 328.175 348.608 328.241 348.489 328.283L348.285 328.334C345.723 328.599 343.436 328.732 340.251 329.109C336.494 329.568 337.495 329.904 333.105 330.496C330.451 330.843 329.603 327.885 330.706 327.599C335.81 326.324 336.147 324.703 337.923 322.622C338.293 322.226 338.793 321.976 339.332 321.918Z" fill="#263238"/>
<path opacity="0.1" d="M343.436 250.222H327.592L324.234 251.64C324.549 256.438 325.194 261.21 326.163 265.92L342.099 261.33C341.221 257.199 340.537 256.556 340.537 256.556C340.537 256.556 341.986 256.199 344.304 255.71L343.436 250.222Z" fill="black"/>
<path opacity="0.1" d="M354.135 251.375C353.942 252.247 353.83 253.134 353.798 254.027C357.449 253.466 361.131 253.125 364.823 253.007C365.998 251.777 366.695 250.168 366.788 248.47C366.882 246.772 366.366 245.097 365.333 243.745L358.984 246.632L354.135 251.375Z" fill="black"/>
<path d="M318.201 311.157L324.081 325.437L329.818 324.284L325.877 309.005L318.201 311.157Z" fill="#EBAEA8"/>
<path opacity="0.2" d="M328.501 319.205L325.877 309.005L318.201 311.157L322.029 320.439L328.501 319.205Z" fill="black"/>
<path d="M365.721 237.36C365.721 237.36 368.896 253.966 358.044 253.966C347.193 253.966 314.648 263.962 314.648 263.962C314.648 263.962 319.436 265.726 327.746 312.085L318.343 314.217C318.343 314.217 294.864 263.666 297.794 257.434C301.949 248.662 342.507 237.36 342.507 237.36H365.721Z" fill="#6FA926"/>
<path d="M317.19 313.605L328.348 311.218L329.501 315.829L318.803 318.297L317.19 313.605Z" fill="#6FA926"/>
<path opacity="0.5" d="M317.19 313.605L328.348 311.218L329.501 315.829L318.803 318.297L317.19 313.605Z" fill="white"/>
<path d="M320.538 326.1C319.871 326.248 319.172 326.154 318.568 325.835C318.489 325.743 318.44 325.629 318.429 325.508C318.418 325.387 318.445 325.266 318.507 325.162C318.548 325.066 318.608 324.979 318.683 324.907C318.759 324.835 318.848 324.78 318.946 324.743C319.967 324.315 322.417 325.335 322.519 325.376C322.548 325.39 322.572 325.412 322.59 325.439C322.608 325.466 322.619 325.497 322.621 325.529C322.618 325.561 322.606 325.592 322.586 325.617C322.566 325.643 322.539 325.662 322.508 325.672C321.865 325.871 321.206 326.014 320.538 326.1ZM319.354 324.958C319.256 324.966 319.159 324.99 319.068 325.029C319.005 325.046 318.947 325.079 318.899 325.123C318.851 325.167 318.815 325.223 318.793 325.284C318.701 325.488 318.793 325.57 318.793 325.621C319.14 326.008 320.783 325.825 321.978 325.529C321.148 325.171 320.258 324.974 319.354 324.947V324.958Z" fill="#0EBED9"/>
<path d="M322.488 325.661H322.417C321.6 325.417 319.864 324.193 319.916 323.448C319.916 323.264 320.018 323.04 320.436 322.948C320.587 322.912 320.743 322.906 320.896 322.933C321.049 322.959 321.195 323.016 321.324 323.101C322.006 323.741 322.467 324.58 322.641 325.498C322.653 325.52 322.659 325.545 322.659 325.57C322.659 325.595 322.653 325.619 322.641 325.641C322.622 325.661 322.596 325.675 322.568 325.678C322.54 325.682 322.512 325.676 322.488 325.661ZM320.579 323.224H320.446C320.171 323.285 320.171 323.397 320.161 323.438C320.161 323.887 321.335 324.866 322.202 325.243C322.039 324.515 321.654 323.856 321.1 323.356C320.94 323.243 320.742 323.196 320.548 323.224H320.579Z" fill="#0EBED9"/>
<path d="M323.06 324.672L330.155 323.825C330.285 323.807 330.417 323.834 330.529 323.903C330.641 323.972 330.725 324.078 330.767 324.203L332.748 329.813C332.833 330.052 332.819 330.316 332.71 330.545C332.601 330.775 332.405 330.951 332.166 331.037L331.972 331.088C329.409 331.353 327.123 331.486 323.938 331.873C320.171 332.322 321.181 332.659 316.792 333.25C314.137 333.607 313.28 330.639 314.393 330.353C319.497 329.089 319.834 327.457 321.6 325.376C321.985 324.973 322.504 324.723 323.06 324.672Z" fill="#263238"/>
<path d="M327.255 173.263C327.25 172.941 327.31 172.62 327.431 172.321C327.552 172.022 327.733 171.751 327.961 171.523C328.19 171.296 328.462 171.117 328.762 170.997C329.062 170.877 329.383 170.818 329.706 170.825L350.623 171.233C353.131 171.283 355.582 171.99 357.732 173.282C359.881 174.574 361.654 176.407 362.873 178.598C367.722 187.247 374.102 204.944 373.949 238.258H339.24C339.24 238.258 327.46 195.02 327.255 173.263Z" fill="#263238"/>
<path opacity="0.4" d="M327.766 181.668C328.266 186.676 329.083 192.194 330.073 197.774C335.33 186.768 332.513 177.761 332.513 177.761L327.766 181.668Z" fill="black"/>
<path d="M327.327 171.754C324.887 174.599 321.1 180.291 309.625 201.16L292.077 204.893C292.077 204.893 290.117 206.505 290.923 210.565C290.923 210.565 309.758 213.798 313.617 212.054C317.476 210.31 327.327 195.499 331.849 187.839C333.717 184.677 334.708 178.445 329.093 171.774C328.985 171.646 328.851 171.542 328.699 171.47C328.548 171.398 328.382 171.36 328.215 171.358C328.047 171.356 327.881 171.391 327.727 171.459C327.574 171.527 327.438 171.628 327.327 171.754Z" fill="#263238"/>
<path d="M388.425 333.036L362.689 323.57L336.678 333.046C336.47 333.122 336.246 333.146 336.027 333.117C335.807 333.087 335.598 333.006 335.417 332.879C335.236 332.752 335.088 332.583 334.985 332.386C334.883 332.19 334.83 331.972 334.83 331.751C334.832 331.489 334.908 331.234 335.049 331.014C335.19 330.794 335.39 330.618 335.626 330.506L362.689 317.94L389.487 330.486C389.722 330.598 389.921 330.774 390.06 330.994C390.199 331.215 390.273 331.47 390.273 331.73C390.277 331.953 390.226 332.174 390.126 332.373C390.025 332.572 389.877 332.743 389.695 332.872C389.513 333.001 389.302 333.083 389.08 333.112C388.859 333.14 388.634 333.114 388.425 333.036Z" fill="#263238"/>
<path opacity="0.3" d="M388.425 333.036L362.689 323.57L336.678 333.046C336.47 333.122 336.246 333.146 336.027 333.117C335.807 333.087 335.598 333.006 335.417 332.879C335.236 332.752 335.088 332.583 334.985 332.386C334.883 332.19 334.83 331.972 334.83 331.751C334.832 331.489 334.908 331.234 335.049 331.014C335.19 330.794 335.39 330.618 335.626 330.506L362.689 317.94L389.487 330.486C389.722 330.598 389.921 330.774 390.06 330.994C390.199 331.215 390.273 331.47 390.273 331.73C390.277 331.953 390.226 332.174 390.126 332.373C390.025 332.572 389.877 332.743 389.695 332.872C389.513 333.001 389.302 333.083 389.08 333.112C388.859 333.14 388.634 333.114 388.425 333.036Z" fill="white"/>
<path opacity="0.2" d="M356.625 325.784L362.689 323.57L368.477 325.702V320.674L362.689 317.96L356.625 320.776V325.784Z" fill="black"/>
<path d="M362.556 333.24C361.992 333.241 361.447 333.033 361.027 332.656C360.606 332.279 360.34 331.761 360.28 331.2L359.555 323.581V260.341H365.558V323.581L364.823 331.2C364.762 331.759 364.498 332.276 364.08 332.653C363.662 333.029 363.119 333.238 362.556 333.24Z" fill="#263238"/>
<path opacity="0.3" d="M362.556 333.24C361.992 333.241 361.447 333.033 361.027 332.656C360.606 332.279 360.34 331.761 360.28 331.2L359.555 323.581V260.341H365.558V323.581L364.823 331.2C364.762 331.759 364.498 332.276 364.08 332.653C363.662 333.029 363.119 333.238 362.556 333.24Z" fill="white"/>
<path opacity="0.2" d="M365.558 260.31H359.555V267.674H365.558V260.31Z" fill="black"/>
<path d="M404.299 254.557C397.507 252.829 390.542 251.871 383.535 251.701C376.318 251.518 349.337 251.701 342.926 251.701C335.111 251.696 327.326 252.666 319.752 254.588C314.995 255.802 316.455 262.656 320.773 262.748C321.161 262.748 402.748 262.748 403.044 262.748C407.515 262.911 409.159 255.791 404.299 254.557Z" fill="#0EBED9"/>
<path opacity="0.3" d="M404.299 254.557C397.507 252.829 390.542 251.871 383.535 251.701C376.318 251.518 349.337 251.701 342.926 251.701C335.111 251.696 327.326 252.666 319.752 254.588C314.995 255.802 316.455 262.656 320.773 262.748C321.161 262.748 402.748 262.748 403.044 262.748C407.515 262.911 409.159 255.791 404.299 254.557Z" fill="black"/>
<path d="M321.957 262.564C335.714 259.066 350.128 259.066 363.884 262.564C369.07 263.88 371.285 255.873 366.099 254.557C350.891 250.702 334.96 250.702 319.752 254.557C314.577 255.873 316.771 263.89 321.957 262.564Z" fill="#0EBED9"/>
<g opacity="0.3">
<path opacity="0.3" d="M321.957 262.564C335.714 259.066 350.128 259.066 363.884 262.564C369.07 263.88 371.285 255.873 366.099 254.557C350.891 250.702 334.96 250.702 319.752 254.557C314.577 255.873 316.771 263.89 321.957 262.564Z" fill="white"/>
</g>
<path d="M382.473 195.142C382.006 195.132 381.544 195.25 381.139 195.484C380.734 195.718 380.401 196.058 380.177 196.468C369.198 214.858 365.256 236.599 369.08 257.668C369.131 258.208 369.374 258.711 369.766 259.086C370.158 259.46 370.672 259.681 371.213 259.708C372.877 259.82 402.492 259.708 403.574 259.708C404.013 259.719 404.449 259.632 404.851 259.455C405.252 259.278 405.61 259.014 405.897 258.683C406.185 258.351 406.396 257.961 406.515 257.538C406.634 257.116 406.658 256.673 406.586 256.24C403.127 236.622 406.872 216.415 417.131 199.334C418.397 197.233 416.529 195.254 414.64 195.254C413.783 195.122 384.362 195.183 382.473 195.142Z" fill="#0EBED9"/>
<path opacity="0.2" d="M382.473 195.142C382.006 195.132 381.544 195.25 381.139 195.484C380.734 195.718 380.401 196.058 380.177 196.468C369.198 214.858 365.256 236.599 369.08 257.668C369.131 258.208 369.374 258.711 369.766 259.086C370.158 259.46 370.672 259.681 371.213 259.708C372.877 259.82 402.492 259.708 403.574 259.708C404.013 259.719 404.449 259.632 404.851 259.455C405.252 259.278 405.61 259.014 405.897 258.683C406.185 258.351 406.396 257.961 406.515 257.538C406.634 257.116 406.658 256.673 406.586 256.24C403.127 236.622 406.872 216.415 417.131 199.334C418.397 197.233 416.529 195.254 414.64 195.254C413.783 195.122 384.362 195.183 382.473 195.142Z" fill="black"/>
<path d="M374.419 256.159C370.965 236.54 374.709 216.335 384.964 199.253C386.812 196.193 382.014 193.408 380.177 196.468C369.198 214.858 365.256 236.599 369.08 257.668C369.713 261.167 375.052 259.708 374.419 256.199V256.159Z" fill="#0EBED9"/>
<g opacity="0.2">
<path opacity="0.2" d="M374.419 256.159C370.965 236.54 374.709 216.335 384.964 199.253C386.812 196.193 382.014 193.408 380.177 196.468C369.198 214.858 365.256 236.599 369.08 257.668C369.713 261.167 375.052 259.708 374.419 256.199V256.159Z" fill="white"/>
</g>
<path d="M444.772 158C444.772 158 445.854 165.87 454.181 166.413C445.843 166.951 444.772 174.827 444.772 174.827C444.772 174.827 443.689 166.956 435.363 166.413C443.7 165.868 444.772 158 444.772 158Z" fill="#FFA945"/>
<path d="M132.51 76C132.51 76 133.593 83.8705 141.919 84.4133C133.582 84.9507 132.51 92.8265 132.51 92.8265C132.51 92.8265 131.428 84.9561 123.101 84.4133C131.439 83.8705 132.51 76 132.51 76Z" fill="#0EBED9"/>
<path d="M263.719 116C263.719 116 264.122 118.806 267.222 119C264.118 119.192 263.719 122 263.719 122C263.719 122 263.316 119.194 260.216 119C263.32 118.806 263.719 116 263.719 116Z" fill="#0EBED9"/>
<path d="M391.263 86C391.263 86 391.942 90.681 397.206 91C391.939 91.3238 391.263 96 391.263 96C391.263 96 390.584 91.3167 385.321 91C390.588 90.681 391.263 86 391.263 86Z" fill="#6FA926"/>
<path d="M301.652 24C301.652 24 302.734 31.8705 311.061 32.4133C302.723 32.9507 301.652 40.8265 301.652 40.8265C301.652 40.8265 300.57 32.9561 292.243 32.4133C300.58 31.8678 301.652 24 301.652 24Z" fill="#6FA926"/>
</svg>
