<svg width="498" height="454" viewBox="0 0 498 454" fill="none" xmlns="http://www.w3.org/2000/svg">
<path d="M461.695 250.523C409.713 362.329 288.298 415.672 190.508 369.67C92.7177 323.667 52.649 169.172 104.631 57.3661C156.613 -54.4397 225.378 82.8142 323.168 128.817C420.959 174.82 513.677 138.717 461.695 250.523Z" fill="#F1F6FF"/>
<path d="M351.239 84C351.239 84 352.314 91.8705 360.585 92.4133C352.304 92.9507 351.239 100.827 351.239 100.827C351.239 100.827 350.164 92.9561 341.893 92.4133C350.175 91.8678 351.239 84 351.239 84Z" fill="#FFA945"/>
<path d="M45.2489 295C45.2489 295 43.9359 303.875 33.7069 304.489C43.9325 305.104 45.2489 313.978 45.2489 313.978C45.2489 313.978 46.5619 305.104 56.791 304.489C46.5654 303.877 45.2489 295 45.2489 295Z" fill="#6FA926"/>
<path d="M197.206 157.885C195.317 162.503 184.194 162.185 172.541 157.352C160.887 152.518 152.962 144.856 154.851 140.238C155.296 139.171 156.561 135.172 157.827 134.622C162.17 132.773 170.437 136.927 179.389 140.642C187.725 144.082 197.258 146.326 198.737 150.876C199.626 153.645 197.745 156.569 197.206 157.885Z" fill="#FFA945"/>
<path opacity="0.2" d="M198.737 150.876C199.446 154.496 197.882 156.234 197.206 157.885C196.531 159.536 194.556 160.62 191.794 160.998C191.449 161.057 191.101 161.097 190.751 161.118C188.634 161.244 186.509 161.131 184.416 160.783C184.117 160.783 183.817 160.688 183.51 160.637C181.053 160.193 178.632 159.567 176.268 158.762L175.413 158.47C174.464 158.134 173.489 157.764 172.515 157.36C171.54 156.956 170.617 156.5 169.702 156.096L168.915 155.718C166.76 154.646 164.683 153.421 162.7 152.054L161.999 151.555C160.267 150.324 158.681 148.899 157.271 147.307C157.057 147.066 156.86 146.834 156.672 146.593C154.834 144.254 154.107 142.018 154.834 140.238C155.313 139.094 156.339 135.181 157.809 134.613C159.618 134.101 161.532 134.101 163.341 134.613L164.196 134.82C168.471 135.92 173.857 138.371 179.354 140.65C185.835 143.342 193.504 146.137 197.266 149.362C197.49 149.552 197.704 149.753 197.907 149.964C198.207 150.245 198.485 150.55 198.737 150.876Z" fill="black"/>
<g opacity="0.2">
<path opacity="0.2" d="M164.623 134.08L164.23 134.802L157.288 147.298C157.074 147.057 156.877 146.825 156.689 146.584L163.358 134.596L163.879 133.667L164.623 134.08Z" fill="black"/>
</g>
<g opacity="0.2">
<path opacity="0.2" d="M169.873 139.18L162.717 152.08L162.016 151.581L169.129 138.784L169.873 139.18Z" fill="black"/>
</g>
<g opacity="0.2">
<path opacity="0.2" d="M183.031 146.576L176.268 158.762L175.413 158.47L182.253 146.12L183.031 146.576Z" fill="black"/>
</g>
<g opacity="0.2">
<path opacity="0.2" d="M176.909 143.136L169.719 156.096L168.932 155.718L176.165 142.68L176.909 143.136Z" fill="black"/>
</g>
<g opacity="0.2">
<path opacity="0.2" d="M191.008 148.932L184.416 160.783C184.117 160.783 183.817 160.688 183.51 160.637L190.255 148.502L191.008 148.932Z" fill="black"/>
</g>
<path d="M198.685 153.86C196.796 158.478 185.809 158.298 174.148 153.456C162.486 148.614 154.569 140.96 156.467 136.342C158.365 131.724 169.343 131.913 181.004 136.746C192.666 141.579 200.575 149.216 198.685 153.86Z" fill="#FFA945"/>
<path opacity="0.2" d="M194.718 152.183C193.384 155.442 184.818 154.987 175.593 151.16C166.368 147.333 159.972 141.579 161.306 138.32C162.64 135.06 171.207 135.516 180.44 139.343C189.674 143.17 196.061 148.924 194.718 152.183Z" fill="white"/>
<path d="M256.131 116.14C259.174 120.088 253.378 129.642 243.4 137.408C233.423 145.174 222.881 148.27 219.846 144.288C219.145 143.377 216.306 140.324 216.477 138.896C217.05 134.192 224.736 129.049 232.397 123.081C239.527 117.525 246.187 110.318 250.847 111.29C253.677 111.918 255.267 115.022 256.131 116.14Z" fill="#F4A640"/>
<path opacity="0.2" d="M250.847 111.324C254.326 112.511 255.045 114.764 256.13 116.14C257.216 117.516 257.174 119.813 256.13 122.418C256.011 122.737 255.865 123.055 255.712 123.382C254.775 125.293 253.628 127.093 252.292 128.748C252.112 128.989 251.915 129.221 251.719 129.462C250.111 131.391 248.362 133.196 246.486 134.863L245.828 135.439C245.067 136.101 244.264 136.763 243.434 137.408C242.605 138.053 241.776 138.664 240.938 139.24C240.707 139.412 240.459 139.575 240.228 139.739C238.23 141.087 236.139 142.288 233.97 143.334C233.705 143.471 233.448 143.583 233.2 143.703C231.273 144.6 229.251 145.275 227.173 145.716C226.865 145.785 226.566 145.836 226.266 145.879C223.334 146.318 221.043 145.879 219.871 144.323C219.119 143.342 216.255 140.496 216.503 138.939C216.95 137.099 217.901 135.422 219.247 134.097C219.435 133.882 219.64 133.667 219.854 133.444C222.941 130.227 227.72 126.779 232.422 123.124C237.971 118.824 244.195 113.5 248.838 111.832C249.118 111.728 249.403 111.639 249.693 111.565C250.071 111.457 250.457 111.376 250.847 111.324Z" fill="black"/>
<g opacity="0.2">
<path opacity="0.2" d="M219.401 132.738L219.829 133.444L227.147 145.716C226.839 145.785 226.54 145.836 226.241 145.879L219.221 134.08L218.674 133.22L219.401 132.738Z" fill="black"/>
</g>
<g opacity="0.2">
<path opacity="0.2" d="M226.403 130.692L233.944 143.334C233.679 143.471 233.423 143.583 233.175 143.703L225.668 131.13L226.403 130.692Z" fill="black"/>
</g>
<g opacity="0.2">
<path opacity="0.2" d="M239.322 122.9L246.461 134.871L245.802 135.447L238.587 123.339L239.322 122.9Z" fill="black"/>
</g>
<g opacity="0.2">
<path opacity="0.2" d="M233.32 126.521L240.912 139.24C240.681 139.412 240.433 139.575 240.202 139.739L232.576 126.959L233.32 126.521Z" fill="black"/>
</g>
<g opacity="0.2">
<path opacity="0.2" d="M245.324 117.095L252.266 128.748C252.086 128.989 251.89 129.221 251.693 129.462L244.588 117.542L245.324 117.095Z" fill="black"/>
</g>
<path d="M240.812 134.033C250.783 126.265 256.402 116.768 253.363 112.821C250.324 108.875 239.778 111.973 229.807 119.742C219.836 127.51 214.216 137.007 217.255 140.954C220.294 144.9 230.841 141.802 240.812 134.033Z" fill="#FFA945"/>
<path opacity="0.2" d="M239.575 131.64C247.467 125.491 252.122 118.245 249.974 115.455C247.826 112.665 239.687 115.388 231.795 121.536C223.904 127.685 219.248 134.931 221.396 137.721C223.544 140.511 231.683 137.788 239.575 131.64Z" fill="white"/>
<path d="M214.861 97.6504C213.887 103.309 201.267 105.7 186.972 103.12C172.677 100.54 161.896 93.8922 162.896 88.2334C163.127 86.9176 163.529 82.1274 164.871 81.1728C169.309 78.0252 179.619 80.6568 190.597 82.6176C200.857 84.4494 212.083 84.5956 214.861 89.3514C216.545 92.2754 215.143 96.0336 214.861 97.6504Z" fill="#FFA945"/>
<path opacity="0.2" d="M214.861 89.36C216.571 93.2644 215.212 95.595 214.861 97.6246C214.511 99.6542 212.553 101.348 209.543 102.466C209.176 102.613 208.791 102.733 208.398 102.853C206.044 103.519 203.624 103.92 201.182 104.049C200.831 104.049 200.489 104.049 200.13 104.109C197.254 104.215 194.373 104.109 191.512 103.791L190.512 103.662C189.358 103.516 188.169 103.344 186.981 103.129C185.792 102.914 184.638 102.673 183.501 102.406C183.176 102.337 182.851 102.251 182.526 102.174C179.84 101.507 177.206 100.645 174.644 99.594C174.327 99.4736 174.028 99.336 173.729 99.2156C171.48 98.2527 169.346 97.0382 167.368 95.595C167.069 95.38 166.795 95.165 166.513 94.9414C163.862 92.7656 162.503 90.4264 162.888 88.2506C163.144 86.8402 163.349 82.2306 164.854 81.19C166.359 80.1494 168.513 79.8226 171.078 79.814H172.104C177.234 79.986 183.843 81.4222 190.589 82.6262C198.54 84.0538 207.85 85.3008 212.861 88.0012C213.154 88.1578 213.44 88.3301 213.716 88.5172C214.119 88.7677 214.502 89.0494 214.861 89.36Z" fill="black"/>
<g opacity="0.2">
<path opacity="0.2" d="M172.386 78.9368L172.113 79.8398L167.359 95.6122C167.06 95.3972 166.786 95.1822 166.504 94.9586L171.07 79.8312L171.429 78.653L172.386 78.9368Z" fill="black"/>
</g>
<g opacity="0.2">
<path opacity="0.2" d="M179.534 83.3399L174.635 99.5853C174.319 99.4649 174.019 99.3273 173.72 99.2069L178.594 83.0389L179.534 83.3399Z" fill="black"/>
</g>
<g opacity="0.2">
<path opacity="0.2" d="M196.146 88.4312L191.503 103.817L190.503 103.688L195.197 88.1388L196.146 88.4312Z" fill="black"/>
</g>
<g opacity="0.2">
<path opacity="0.2" d="M188.426 86.0747L183.492 102.415C183.168 102.346 182.843 102.26 182.518 102.183L187.477 85.7651L188.426 86.0747Z" fill="black"/>
</g>
<g opacity="0.2">
<path opacity="0.2" d="M205.696 89.102L201.173 104.075C200.823 104.075 200.481 104.075 200.122 104.135L204.747 88.8182L205.696 89.102Z" fill="black"/>
</g>
<path d="M215.527 92.7097C216.528 87.0515 205.747 80.3897 191.447 77.8301C177.148 75.2705 164.744 77.7824 163.743 83.4406C162.742 89.0988 173.523 95.7606 187.823 98.3202C202.122 100.88 214.526 98.3679 215.527 92.7097Z" fill="#FFA945"/>
<path opacity="0.2" d="M210.661 91.8447C211.368 87.8466 202.768 82.9636 191.453 80.9382C180.138 78.9128 170.392 80.5121 169.684 84.5102C168.977 88.5084 177.577 93.3914 188.892 95.4168C200.207 97.4421 209.953 95.8429 210.661 91.8447Z" fill="white"/>
<path d="M289.5 242.122L201.515 247.282C198.407 247.466 195.357 248.212 192.512 249.483L96.944 292.483C95.2672 293.225 93.894 294.522 93.0538 296.16C92.2135 297.797 91.9571 299.674 92.3272 301.479L108.118 376.6C108.385 377.81 108.924 378.942 109.693 379.91C110.461 380.878 111.44 381.657 112.554 382.186C113.667 382.716 114.887 382.982 116.119 382.965C117.35 382.948 118.562 382.647 119.661 382.087L213.989 334.718L301.093 331.785C302.165 331.757 303.218 331.498 304.183 331.028C305.148 330.558 306.002 329.886 306.689 329.058C307.376 328.23 307.879 327.264 308.166 326.224C308.453 325.185 308.516 324.096 308.352 323.03L296.698 251.1C296.091 247.385 293.287 242.01 289.5 242.122Z" fill="#0EBED9"/>
<path opacity="0.1" d="M289.5 242.122L201.515 247.282C198.407 247.466 195.357 248.212 192.512 249.483L96.944 292.483C95.2672 293.225 93.894 294.522 93.0538 296.16C92.2135 297.797 91.9571 299.674 92.3272 301.479L108.118 376.6C108.385 377.81 108.924 378.942 109.693 379.91C110.461 380.878 111.44 381.657 112.554 382.186C113.667 382.716 114.887 382.982 116.119 382.965C117.35 382.948 118.562 382.647 119.661 382.087L213.989 334.718L301.093 331.785C302.165 331.757 303.218 331.498 304.183 331.028C305.148 330.558 306.002 329.886 306.689 329.058C307.376 328.23 307.879 327.264 308.166 326.224C308.453 325.185 308.516 324.096 308.352 323.03L296.698 251.1C296.091 247.385 293.287 242.01 289.5 242.122Z" fill="black"/>
<path d="M112.879 193.189L66.7239 236.022L149.546 326.474L195.701 283.641L112.879 193.189Z" fill="#6FA926"/>
<path opacity="0.5" d="M195.744 283.634L149.567 326.445L66.721 236.033L97.021 207.937L112.898 193.214L115.54 196.103L195.744 283.634Z" fill="#FAFAFA"/>
<path d="M113.193 198.736L72.4518 236.513L149.957 321.088L190.698 283.311L113.193 198.736Z" stroke="#0EBED9" stroke-miterlimit="10"/>
<path d="M140.742 269.925C145.415 265.592 144.824 257.3 139.422 251.405C134.02 245.51 125.852 244.244 121.179 248.577C116.506 252.91 117.097 261.202 122.499 267.097C127.902 272.992 136.069 274.258 140.742 269.925Z" fill="#6FA926"/>
<path opacity="0.1" d="M149.08 289.749L132.673 295.45L97.021 207.937L112.898 193.214L115.54 196.103L149.08 289.749Z" fill="black"/>
<path d="M152.277 157.786L93.2402 179.318L134.912 294.924L193.949 273.393L152.277 157.786Z" fill="#6FA926"/>
<path opacity="0.5" d="M152.277 157.786L93.2402 179.318L134.912 294.924L193.949 273.393L152.277 157.786Z" fill="#FAFAFA"/>
<path d="M150.421 162.999L98.3291 181.998L137.308 290.134L189.4 271.135L150.421 162.999Z" stroke="#6FA926" stroke-miterlimit="10"/>
<path d="M148.482 239.359C154.457 237.18 157.099 229.303 154.382 221.766C151.665 214.228 144.619 209.885 138.644 212.064C132.669 214.243 130.027 222.12 132.744 229.657C135.461 237.195 142.507 241.538 148.482 239.359Z" fill="#6FA926"/>
<path d="M290.073 245.175L203.293 250.094C200.217 250.263 197.199 251.007 194.393 252.287L100.227 295.046C98.5685 295.8 97.2154 297.101 96.3914 298.734C95.5675 300.366 95.3221 302.233 95.6958 304.024L111.487 379.18C111.741 380.382 112.266 381.51 113.022 382.476C113.777 383.442 114.742 384.221 115.844 384.754C116.945 385.286 118.153 385.557 119.375 385.547C120.597 385.536 121.8 385.244 122.892 384.692L215.827 337.59L301.734 334.855C302.798 334.822 303.842 334.56 304.797 334.088C305.752 333.616 306.596 332.945 307.272 332.118C307.949 331.292 308.442 330.33 308.72 329.297C308.997 328.264 309.053 327.183 308.882 326.126L297.194 254.205C296.587 250.455 293.817 245.071 290.073 245.175Z" fill="#0EBED9"/>
<path opacity="0.2" d="M206.824 263.252L281.284 258.642" stroke="black" stroke-width="2" stroke-linecap="round" stroke-linejoin="round"/>
<path opacity="0.2" d="M197.907 265.187L211.51 328.036" stroke="black" stroke-width="2" stroke-linecap="round" stroke-linejoin="round"/>
<path opacity="0.2" d="M107.212 321.93L116.805 370.27C116.805 370.27 124.158 351.092 107.212 321.93Z" fill="#FAFAFA"/>
<path opacity="0.2" d="M108.469 322.497C108.802 323.357 193.675 286.721 193.675 286.721C193.905 295.027 191.84 303.235 187.711 310.431C183.581 317.628 177.548 323.531 170.283 327.485C144.737 341.89 108.469 322.497 108.469 322.497Z" fill="#FAFAFA"/>
<path d="M164.846 323.925C166.876 323.925 168.522 322.269 168.522 320.227C168.522 318.185 166.876 316.529 164.846 316.529C162.815 316.529 161.169 318.185 161.169 320.227C161.169 322.269 162.815 323.925 164.846 323.925Z" fill="#0EBED9"/>
<path opacity="0.2" d="M193.718 286.721C193.718 286.721 204.242 302.657 201.695 329.799L193.718 286.721Z" fill="black"/>
<g opacity="0.2">
<path opacity="0.2" d="M103.151 302.941L105.109 302.072" stroke="#FAFAFA" stroke-linecap="round" stroke-linejoin="round"/>
<path opacity="0.2" d="M109.17 300.266L188.425 265.024" stroke="#FAFAFA" stroke-linecap="round" stroke-linejoin="round" stroke-dasharray="5.2 5.2"/>
<path opacity="0.2" d="M190.46 264.121L192.41 263.252" stroke="#FAFAFA" stroke-linecap="round" stroke-linejoin="round"/>
</g>
<path opacity="0.2" d="M209.321 277.382L283.78 272.764" stroke="black" stroke-width="2" stroke-linecap="round" stroke-linejoin="round"/>
<path opacity="0.2" d="M212.672 295.003L287.131 290.385" stroke="black" stroke-width="2" stroke-linecap="round" stroke-linejoin="round"/>
<path d="M270.81 169.822C270.81 169.822 268.938 189.885 261.525 191.614C256.935 192.611 252.149 192.13 247.846 190.238L241.818 185.577L238.877 195.897C238.877 195.897 242.092 200.291 248.803 197.247C248.803 197.247 260.773 202.545 267.39 197.247C274.008 191.949 276.128 177.415 276.128 177.415L270.81 169.822Z" fill="#FFC3BD"/>
<path d="M276.769 160.104C276.769 160.104 271.597 151.237 273.948 135.164C276.299 119.09 289.696 117.104 294.869 118.265C300.042 119.426 304.274 124.422 307.796 133.934C311.319 143.445 312.618 145.922 318.492 144.254C324.365 142.585 339.994 137.374 344.346 142.009C345.598 143.275 346.52 144.832 347.031 146.542C347.543 148.252 347.628 150.063 347.278 151.813C347.278 151.813 369.02 146.498 367.139 166.003C365.258 185.508 333.881 203.714 304.034 184.442C274.187 165.169 276.769 160.104 276.769 160.104Z" fill="#614A43"/>
<path d="M276.53 207.309C276.53 207.309 270.622 258.419 270.819 282.387C271.015 306.355 279.48 362.84 279.48 362.84H289.919C289.919 362.84 288.542 317.673 288.739 302.219C288.936 286.764 291.689 261.197 291.689 261.197C291.689 261.197 295.031 284.176 298.973 292.294C302.914 300.413 324.776 329.145 339.943 338.063L347.031 331.519C347.031 331.519 331.273 311.911 325.366 302.201C319.458 292.492 314.148 289.74 311.977 271.68C309.805 253.62 313.559 224.733 307.257 207.3L276.53 207.309Z" fill="#263238"/>
<path opacity="0.2" d="M291.688 261.197L287.149 228.8C287.149 228.8 283.566 248.271 290.62 272.05L291.688 261.197Z" fill="black"/>
<path d="M281.626 365.704L281.976 375.74L288.978 376.325L289.329 375.387V364.999L281.626 365.704Z" fill="#FFC3BD"/>
<path d="M278.3 361.886L278.941 365.644L290.962 365.936L291.723 361.421L278.3 361.886Z" fill="#0EBED9"/>
<path d="M336.651 338.76L347.791 328.32L350.245 332.25L340.678 341.056L336.651 338.76Z" fill="#0EBED9"/>
<path d="M342.021 338.76L349.373 344.986L354.093 339.405L348.057 333.127L342.021 338.76Z" fill="#FFC3BD"/>
<path d="M355.52 338.975L359.966 341.727C360.169 341.853 360.342 342.021 360.473 342.221C360.604 342.421 360.69 342.647 360.725 342.884C360.76 343.121 360.743 343.362 360.675 343.592C360.608 343.821 360.491 344.033 360.334 344.213C357.111 347.876 348.877 357.181 348.056 357.835C347.039 358.695 345.808 357.25 345.492 355.96C345.492 355.96 347.826 352.847 348.056 350.852C348.154 349.311 348.154 347.766 348.056 346.225C348.038 345.839 348.167 345.461 348.416 345.167L353.383 339.302C353.639 338.996 353.997 338.795 354.391 338.735C354.784 338.674 355.185 338.76 355.52 338.975Z" fill="#263238"/>
<path d="M290.688 376.6L291.612 381.76C291.654 381.996 291.645 382.238 291.584 382.47C291.523 382.702 291.413 382.918 291.26 383.102C291.108 383.287 290.917 383.435 290.702 383.538C290.486 383.64 290.251 383.694 290.013 383.695C285.148 383.695 272.768 383.747 271.734 383.575C270.443 383.36 270.673 381.502 271.434 380.418C271.434 380.418 275.29 380.092 276.906 378.913C278.108 377.965 279.25 376.943 280.326 375.852C280.601 375.581 280.967 375.425 281.352 375.413L289.004 375.233C289.401 375.218 289.791 375.349 290.1 375.6C290.41 375.851 290.618 376.206 290.688 376.6Z" fill="#263238"/>
<path d="M308.377 178.964L319.047 171.43C319.047 171.43 316.209 160.009 312.003 159.442C307.796 158.874 286.918 154.875 273.64 159.442C273.64 159.442 268.869 160.809 267.399 174.285L273.076 176.108C273.076 176.108 275.111 201.341 276.368 205.228H306.668C306.668 205.228 307.01 183.53 308.377 178.964Z" fill="#6FA926"/>
<path d="M310.677 177.338C310.677 177.338 314.721 188.948 315.439 195.192C315.439 195.192 305.83 191.339 303.35 189.576L301.469 182.782L295.108 179.66L293.219 184.82L298.528 191.442C298.528 191.442 313.003 205.064 320.338 201.951C327.674 198.838 317.44 172.591 317.44 172.591L310.677 177.338Z" fill="#FFC3BD"/>
<path d="M283.532 126.503C283.532 126.503 279.83 133.934 280.112 139.98C280.394 146.025 283.43 148.494 289.201 149.345C289.201 149.345 291.663 157.085 285.199 157.868C284.703 157.928 284.532 159.897 284.567 160.215C284.738 161.471 285.977 162.159 287.132 162.451C288.347 162.722 289.588 162.861 290.834 162.864C292.141 162.91 293.442 162.655 294.637 162.12C295.832 161.585 296.891 160.784 297.733 159.777C297.87 159.613 299.17 157.945 299.17 157.945C299.17 157.945 296.083 156.406 297.169 146.326C298.642 145.362 299.773 143.953 300.401 142.302C300.99 141.987 301.512 141.557 301.935 141.037C302.357 140.517 302.673 139.918 302.863 139.274C303.325 137.262 301.555 134.476 298.323 137.262C298.323 137.262 292.236 134.166 289.927 123.321C288.216 125.08 285.961 126.202 283.532 126.503Z" fill="#FFC3BD"/>
<path d="M285.268 138.328L285.789 134.355L282.993 137.468C283.282 137.777 283.637 138.015 284.031 138.164C284.425 138.314 284.848 138.37 285.268 138.328Z" fill="#EBAEA8"/>
<path d="M286.892 141.235C286.892 141.235 289.842 141.691 291.261 139.79" stroke="#F99893" stroke-width="0.75" stroke-linecap="round" stroke-linejoin="round"/>
<path d="M289.842 128.791C290.511 128.6 291.22 128.594 291.893 128.774C292.565 128.954 293.177 129.313 293.663 129.814" stroke="#222221" stroke-linecap="round" stroke-linejoin="round"/>
<path d="M284.738 127.931C284.738 127.931 283.028 127.664 282.267 128.636" stroke="#222221" stroke-linecap="round" stroke-linejoin="round"/>
<path d="M291.03 134.02C290.953 134.622 290.569 135.06 290.175 135.009C289.782 134.957 289.517 134.433 289.594 133.831C289.671 133.229 290.056 132.79 290.449 132.842C290.842 132.893 291.107 133.418 291.03 134.02Z" fill="#222221"/>
<path d="M284.205 132.689C284.282 132.091 284.022 131.564 283.624 131.512C283.226 131.46 282.841 131.902 282.764 132.501C282.686 133.099 282.946 133.626 283.344 133.678C283.742 133.73 284.128 133.287 284.205 132.689Z" fill="#222221"/>
<path d="M290.457 132.842L289.106 132.248C289.124 132.397 289.18 132.539 289.269 132.659C289.358 132.779 289.477 132.874 289.613 132.934C289.75 132.994 289.899 133.017 290.047 133.001C290.195 132.984 290.337 132.93 290.457 132.842Z" fill="#222221"/>
<path d="M283.754 131.569L282.404 130.975C282.421 131.124 282.477 131.266 282.566 131.386C282.655 131.506 282.774 131.601 282.91 131.661C283.047 131.721 283.196 131.744 283.345 131.728C283.493 131.712 283.634 131.657 283.754 131.569Z" fill="#222221"/>
<path d="M275.307 203.886V207.472L308.138 207.748L307.257 203.482L275.307 203.886Z" fill="#6FA926"/>
<path d="M275.709 186.48L257.652 249.655C257.052 251.771 255.835 253.657 254.159 255.071C252.482 256.484 250.423 257.36 248.248 257.585C246.862 257.718 245.465 257.589 244.127 257.206L209.612 247.222C206.821 246.412 204.464 244.522 203.057 241.967C201.65 239.412 201.308 236.399 202.105 233.591L220.17 170.398C220.977 167.595 222.856 165.228 225.394 163.816C227.933 162.404 230.924 162.062 233.713 162.864L268.254 172.84C271.038 173.659 273.385 175.554 274.783 178.111C276.18 180.667 276.513 183.677 275.709 186.48Z" fill="#E7E7E7"/>
<path opacity="0.2" d="M275.709 186.48L257.652 249.655C257.052 251.771 255.835 253.657 254.159 255.071C252.482 256.484 250.423 257.36 248.248 257.585C246.862 257.718 245.465 257.589 244.127 257.206L209.612 247.222C206.821 246.412 204.464 244.522 203.057 241.967C201.65 239.412 201.308 236.399 202.105 233.591L220.17 170.398C220.977 167.595 222.856 165.228 225.394 163.816C227.933 162.404 230.924 162.062 233.713 162.864L268.254 172.84C271.038 173.659 273.385 175.554 274.783 178.111C276.18 180.667 276.513 183.677 275.709 186.48Z" fill="black"/>
<path d="M272.708 187.228L254.651 250.412C254.195 252.021 253.379 253.503 252.266 254.746C251.153 255.989 249.773 256.96 248.23 257.585C246.845 257.718 245.448 257.589 244.11 257.206L209.612 247.222C206.821 246.412 204.464 244.522 203.057 241.967C201.65 239.412 201.308 236.399 202.105 233.591L220.17 170.398C220.628 168.792 221.444 167.312 222.557 166.072C223.669 164.832 225.049 163.864 226.591 163.243C227.976 163.101 229.376 163.229 230.712 163.621L265.184 173.64C267.969 174.445 270.324 176.326 271.734 178.872C273.144 181.418 273.494 184.423 272.708 187.228Z" fill="#D4D4D4"/>
<path opacity="0.5" d="M272.708 187.228L254.651 250.412C254.195 252.021 253.379 253.503 252.266 254.746C251.153 255.989 249.773 256.96 248.23 257.585C246.845 257.718 245.448 257.589 244.11 257.206L209.612 247.222C206.821 246.412 204.464 244.522 203.057 241.967C201.65 239.412 201.308 236.399 202.105 233.591L220.17 170.398C220.628 168.792 221.444 167.312 222.557 166.072C223.669 164.832 225.049 163.864 226.591 163.243C227.976 163.101 229.376 163.229 230.712 163.621L265.184 173.64C267.969 174.445 270.324 176.326 271.734 178.872C273.144 181.418 273.494 184.423 272.708 187.228Z" fill="#FAFAFA"/>
<path d="M224.164 192.601L220.469 191.553L207.17 239.017L210.865 240.064L224.164 192.601Z" fill="#FAFAFA"/>
<path d="M216.169 241.571L212.476 240.496L225.77 193.05L229.455 194.117L216.169 241.571Z" fill="#FAFAFA"/>
<path d="M221.538 243.119L217.845 242.053L231.14 194.607L234.833 195.673L221.538 243.119Z" fill="#FAFAFA"/>
<path opacity="0.5" d="M256.334 201.891L252.639 200.844L239.34 248.307L243.035 249.354L256.334 201.891Z" fill="black"/>
<path d="M255.865 188.475L254.07 194.916L251.881 194.297C250.821 193.995 249.923 193.282 249.385 192.314C248.846 191.347 248.711 190.205 249.008 189.137L250.205 184.837L254.626 186.11C255.101 186.259 255.499 186.591 255.732 187.034C255.964 187.478 256.012 187.996 255.865 188.475Z" fill="#FAFAFA"/>
<path d="M254.814 185.319L250.394 184.046L251.719 179.333C251.867 178.804 252.117 178.31 252.455 177.879C252.793 177.447 253.212 177.087 253.688 176.819C254.165 176.551 254.689 176.379 255.231 176.315C255.774 176.25 256.323 176.294 256.849 176.444L259.123 177.089L257.139 184.029C257.073 184.269 256.961 184.493 256.807 184.688C256.654 184.884 256.463 185.046 256.247 185.167C256.03 185.287 255.792 185.362 255.545 185.388C255.299 185.414 255.051 185.391 254.814 185.319Z" fill="#FAFAFA"/>
<path d="M259.003 187.4L263.449 188.681L262.269 192.887C262.123 193.417 261.874 193.912 261.537 194.345C261.199 194.778 260.78 195.139 260.303 195.407C259.826 195.676 259.301 195.847 258.758 195.91C258.215 195.974 257.665 195.928 257.139 195.776L254.831 195.123L256.669 188.69C256.737 188.45 256.851 188.227 257.006 188.032C257.16 187.837 257.351 187.675 257.568 187.555C257.785 187.435 258.024 187.359 258.27 187.333C258.516 187.306 258.766 187.329 259.003 187.4Z" fill="#FAFAFA"/>
<path d="M265.022 183.1L263.68 187.882L259.234 186.6C258.758 186.46 258.356 186.137 258.116 185.7C257.876 185.264 257.817 184.75 257.951 184.27L259.935 177.329L262.149 177.957C262.674 178.105 263.164 178.355 263.592 178.694C264.02 179.032 264.378 179.452 264.645 179.93C264.911 180.408 265.082 180.933 265.147 181.477C265.211 182.021 265.169 182.573 265.022 183.1Z" fill="#FAFAFA"/>
<path d="M86.9482 115C86.9482 115 85.7525 122.889 76.4554 123.435C85.7525 123.98 86.9482 131.87 86.9482 131.87C86.9482 131.87 88.1438 123.98 97.4409 123.435C88.1438 122.889 86.9482 115 86.9482 115Z" fill="#0EBED9"/>
<path d="M162.856 32C162.856 32 161.959 37.9191 154.993 38.3261C161.966 38.7354 162.862 44.6522 162.862 44.6522C162.862 44.6522 163.759 38.7354 170.732 38.3261C163.752 37.9191 162.856 32 162.856 32Z" fill="#6FA926"/>
<path d="M401.941 276C401.941 276 403.016 283.87 411.287 284.413C403.005 284.951 401.941 292.827 401.941 292.827C401.941 292.827 400.866 284.956 392.594 284.413C400.876 283.87 401.941 276 401.941 276Z" fill="#0EBED9"/>
</svg>
